<svg width="320" height="568" viewBox="0 0 320 568" fill="none" xmlns="http://www.w3.org/2000/svg">
<g clip-path="url(#clip0_31_658)">
<rect width="320" height="568" fill="#646464"/>
<g filter="url(#filter0_d_31_658)">
<path d="M54.8958 540.639C54.9442 540.591 54.9442 540.513 54.8958 540.464L54.1073 539.676C54.0589 539.627 53.9804 539.627 53.932 539.676C53.8837 539.724 53.8837 539.802 53.932 539.851L54.6329 540.552L53.932 541.253C53.8837 541.301 53.8837 541.379 53.932 541.428C53.9804 541.476 54.0589 541.476 54.1073 541.428L54.8958 540.639ZM44.6483 540.676H54.8082V540.428H44.6483V540.676Z" fill="white"/>
</g>
<g filter="url(#filter1_d_31_658)">
<rect x="5.1239" y="532.994" width="39.4005" height="14.6203" rx="7.31015" stroke="#02CC9E" stroke-width="0.247802" shape-rendering="crispEdges"/>
</g>
<path d="M21.8941 541.431C21.8941 541.349 21.8812 541.276 21.8554 541.213C21.8312 541.149 21.7876 541.091 21.7247 541.039C21.6634 540.987 21.5779 540.938 21.4682 540.891C21.3601 540.845 21.223 540.797 21.0568 540.749C20.8825 540.697 20.7253 540.64 20.5849 540.577C20.4445 540.512 20.3243 540.439 20.2243 540.357C20.1243 540.274 20.0477 540.18 19.9944 540.073C19.9412 539.967 19.9146 539.845 19.9146 539.708C19.9146 539.571 19.9428 539.444 19.9993 539.328C20.0557 539.212 20.1364 539.111 20.2413 539.026C20.3477 538.938 20.4744 538.871 20.6212 538.822C20.768 538.774 20.9318 538.75 21.1124 538.75C21.377 538.75 21.6013 538.801 21.7852 538.902C21.9707 539.002 22.1119 539.134 22.2087 539.297C22.3055 539.458 22.3539 539.631 22.3539 539.814H21.8892C21.8892 539.682 21.861 539.565 21.8045 539.464C21.7481 539.36 21.6626 539.28 21.548 539.222C21.4335 539.162 21.2883 539.132 21.1124 539.132C20.9463 539.132 20.8091 539.157 20.7011 539.207C20.593 539.257 20.5123 539.325 20.4591 539.41C20.4074 539.496 20.3816 539.593 20.3816 539.703C20.3816 539.777 20.3969 539.845 20.4276 539.906C20.4599 539.966 20.5091 540.022 20.5752 540.073C20.643 540.125 20.7285 540.173 20.8317 540.216C20.9366 540.26 21.0616 540.302 21.2068 540.342C21.4069 540.398 21.5795 540.461 21.7247 540.531C21.8699 540.6 21.9893 540.678 22.0828 540.766C22.178 540.851 22.2482 540.949 22.2934 541.058C22.3402 541.166 22.3636 541.289 22.3636 541.426C22.3636 541.57 22.3345 541.7 22.2764 541.816C22.2184 541.932 22.1353 542.031 22.0272 542.113C21.9191 542.196 21.7892 542.259 21.6376 542.305C21.4875 542.348 21.3198 542.37 21.1342 542.37C20.9713 542.37 20.8108 542.347 20.6527 542.302C20.4962 542.257 20.3534 542.189 20.2243 542.099C20.0969 542.009 19.9944 541.897 19.917 541.765C19.8412 541.631 19.8033 541.476 19.8033 541.3H20.2679C20.2679 541.421 20.2913 541.525 20.3381 541.612C20.3848 541.698 20.4486 541.769 20.5292 541.825C20.6115 541.882 20.7043 541.924 20.8075 541.951C20.9124 541.977 21.0213 541.99 21.1342 541.99C21.2972 541.99 21.4351 541.967 21.548 541.922C21.661 541.877 21.7465 541.813 21.8045 541.729C21.8642 541.645 21.8941 541.546 21.8941 541.431ZM23.9873 539.703V540.047H22.5717V539.703H23.9873ZM23.0508 539.067H23.4985V541.673C23.4985 541.762 23.5122 541.829 23.5396 541.874C23.5671 541.919 23.6026 541.949 23.6461 541.963C23.6897 541.978 23.7365 541.985 23.7865 541.985C23.8236 541.985 23.8623 541.982 23.9026 541.975C23.9446 541.967 23.976 541.961 23.997 541.956L23.9994 542.322C23.9639 542.333 23.9172 542.343 23.8591 542.353C23.8026 542.364 23.734 542.37 23.6534 542.37C23.5437 542.37 23.4428 542.348 23.3509 542.305C23.2589 542.261 23.1855 542.188 23.1307 542.087C23.0774 541.984 23.0508 541.845 23.0508 541.671V539.067ZM26.0564 541.874V540.526C26.0564 540.423 26.0354 540.333 25.9935 540.257C25.9531 540.18 25.8918 540.12 25.8095 540.078C25.7273 540.036 25.6256 540.015 25.5046 540.015C25.3917 540.015 25.2925 540.035 25.207 540.073C25.1231 540.112 25.0569 540.163 25.0085 540.226C24.9618 540.289 24.9384 540.357 24.9384 540.429H24.4907C24.4907 540.336 24.5149 540.243 24.5633 540.151C24.6117 540.059 24.681 539.976 24.7714 539.902C24.8633 539.826 24.9731 539.766 25.1005 539.723C25.2296 539.677 25.3731 539.655 25.5313 539.655C25.7216 539.655 25.8894 539.687 26.0346 539.752C26.1814 539.816 26.296 539.914 26.3782 540.044C26.4621 540.173 26.5041 540.336 26.5041 540.531V541.75C26.5041 541.838 26.5113 541.93 26.5258 542.029C26.542 542.127 26.5654 542.212 26.596 542.283V542.322H26.129C26.1064 542.27 26.0886 542.201 26.0757 542.116C26.0628 542.029 26.0564 541.948 26.0564 541.874ZM26.1338 540.734L26.1387 541.049H25.6861C25.5587 541.049 25.4449 541.059 25.3449 541.08C25.2449 541.099 25.161 541.129 25.0932 541.17C25.0255 541.21 24.9739 541.261 24.9384 541.322C24.9029 541.382 24.8851 541.452 24.8851 541.533C24.8851 541.615 24.9037 541.69 24.9408 541.758C24.9779 541.825 25.0336 541.879 25.1078 541.92C25.1836 541.959 25.2764 541.978 25.3861 541.978C25.5232 541.978 25.6442 541.949 25.749 541.891C25.8539 541.833 25.937 541.762 25.9983 541.678C26.0612 541.594 26.0951 541.512 26.0999 541.433L26.2911 541.649C26.2798 541.717 26.2492 541.792 26.1992 541.874C26.1491 541.956 26.0822 542.035 25.9983 542.111C25.916 542.185 25.8176 542.247 25.7031 542.297C25.5901 542.346 25.4627 542.37 25.3207 542.37C25.1433 542.37 24.9876 542.335 24.8537 542.266C24.7214 542.197 24.6181 542.104 24.5439 541.988C24.4713 541.87 24.435 541.738 24.435 541.593C24.435 541.453 24.4624 541.329 24.5173 541.223C24.5721 541.115 24.6512 541.025 24.7545 540.954C24.8577 540.882 24.9819 540.827 25.1271 540.79C25.2723 540.753 25.4345 540.734 25.6135 540.734H26.1338ZM27.656 540.115V542.322H27.2083V539.703H27.6439L27.656 540.115ZM28.4739 539.689L28.4715 540.105C28.4344 540.097 28.3989 540.092 28.365 540.09C28.3327 540.087 28.2956 540.086 28.2537 540.086C28.1504 540.086 28.0593 540.102 27.9802 540.134C27.9012 540.166 27.8342 540.211 27.7794 540.269C27.7245 540.328 27.681 540.397 27.6487 540.478C27.618 540.557 27.5979 540.644 27.5882 540.739L27.4624 540.811C27.4624 540.653 27.4777 540.505 27.5083 540.366C27.5406 540.227 27.5898 540.105 27.656 539.998C27.7221 539.89 27.806 539.806 27.9076 539.747C28.0109 539.685 28.1335 539.655 28.2755 539.655C28.3077 539.655 28.3448 539.659 28.3868 539.667C28.4287 539.673 28.4578 539.681 28.4739 539.689ZM30.1049 539.703V540.047H28.6893V539.703H30.1049ZM29.1684 539.067H29.6161V541.673C29.6161 541.762 29.6298 541.829 29.6572 541.874C29.6847 541.919 29.7202 541.949 29.7637 541.963C29.8073 541.978 29.8541 541.985 29.9041 541.985C29.9412 541.985 29.9799 541.982 30.0202 541.975C30.0622 541.967 30.0936 541.961 30.1146 541.956L30.117 542.322C30.0815 542.333 30.0348 542.343 29.9767 542.353C29.9202 542.364 29.8516 542.37 29.771 542.37C29.6613 542.37 29.5604 542.348 29.4685 542.305C29.3765 542.261 29.3031 542.188 29.2483 542.087C29.195 541.984 29.1684 541.845 29.1684 541.671V539.067Z" fill="#F8F4E3"/>
<g filter="url(#filter2_d_31_658)">
<path d="M104.952 540.639C105 540.591 105 540.513 104.952 540.464L104.163 539.676C104.115 539.627 104.036 539.627 103.988 539.676C103.94 539.724 103.94 539.802 103.988 539.851L104.689 540.552L103.988 541.253C103.94 541.301 103.94 541.379 103.988 541.428C104.036 541.476 104.115 541.476 104.163 541.428L104.952 540.639ZM94.7042 540.676H104.864V540.428H94.7042V540.676Z" fill="white"/>
</g>
<g filter="url(#filter3_d_31_658)">
<rect x="55.1799" y="532.994" width="39.4005" height="14.6203" rx="0.867306" stroke="#F27654" stroke-width="0.247802" shape-rendering="crispEdges"/>
</g>
<path d="M65.8712 538.405V537.057C65.8712 536.953 65.8502 536.864 65.8083 536.788C65.7679 536.711 65.7066 536.651 65.6244 536.609C65.5421 536.567 65.4404 536.546 65.3194 536.546C65.2065 536.546 65.1073 536.565 65.0218 536.604C64.9379 536.643 64.8718 536.694 64.8234 536.757C64.7766 536.82 64.7532 536.887 64.7532 536.96H64.3055C64.3055 536.866 64.3297 536.774 64.3781 536.682C64.4265 536.59 64.4959 536.507 64.5862 536.432C64.6782 536.357 64.7879 536.297 64.9153 536.253C65.0444 536.208 65.188 536.186 65.3461 536.186C65.5364 536.186 65.7042 536.218 65.8494 536.282C65.9962 536.347 66.1108 536.444 66.193 536.575C66.2769 536.704 66.3189 536.866 66.3189 537.062V538.281C66.3189 538.368 66.3261 538.461 66.3407 538.559C66.3568 538.658 66.3802 538.743 66.4108 538.814V538.852H65.9438C65.9212 538.801 65.9035 538.732 65.8905 538.647C65.8776 538.559 65.8712 538.479 65.8712 538.405ZM65.9486 537.265L65.9535 537.579H65.5009C65.3735 537.579 65.2597 537.59 65.1597 537.611C65.0597 537.63 64.9758 537.66 64.9081 537.7C64.8403 537.741 64.7887 537.792 64.7532 537.853C64.7177 537.913 64.6999 537.983 64.6999 538.063C64.6999 538.146 64.7185 538.221 64.7556 538.288C64.7927 538.356 64.8484 538.41 64.9226 538.451C64.9984 538.489 65.0912 538.509 65.2009 538.509C65.338 538.509 65.459 538.48 65.5639 538.422C65.6687 538.363 65.7518 538.292 65.8131 538.209C65.876 538.125 65.9099 538.043 65.9147 537.964L66.1059 538.18C66.0946 538.247 66.064 538.322 66.014 538.405C65.964 538.487 65.897 538.566 65.8131 538.642C65.7308 538.716 65.6324 538.778 65.5179 538.828C65.4049 538.876 65.2775 538.901 65.1355 538.901C64.9581 538.901 64.8024 538.866 64.6685 538.797C64.5362 538.727 64.4329 538.635 64.3587 538.518C64.2861 538.401 64.2498 538.269 64.2498 538.124C64.2498 537.984 64.2773 537.86 64.3321 537.754C64.387 537.646 64.466 537.556 64.5693 537.485C64.6725 537.412 64.7967 537.358 64.9419 537.32C65.0871 537.283 65.2493 537.265 65.4283 537.265H65.9486ZM67.0037 538.615C67.0037 538.539 67.0271 538.476 67.0739 538.424C67.1223 538.371 67.1917 538.344 67.282 538.344C67.3724 538.344 67.4409 538.371 67.4877 538.424C67.5361 538.476 67.5603 538.539 67.5603 538.615C67.5603 538.689 67.5361 538.752 67.4877 538.804C67.4409 538.856 67.3724 538.881 67.282 538.881C67.1917 538.881 67.1223 538.856 67.0739 538.804C67.0271 538.752 67.0037 538.689 67.0037 538.615ZM67.0061 536.478C67.0061 536.403 67.0295 536.339 67.0763 536.287C67.1247 536.234 67.1941 536.207 67.2844 536.207C67.3748 536.207 67.4433 536.234 67.4901 536.287C67.5385 536.339 67.5627 536.403 67.5627 536.478C67.5627 536.553 67.5385 536.615 67.4901 536.667C67.4433 536.719 67.3748 536.745 67.2844 536.745C67.1941 536.745 67.1247 536.719 67.0763 536.667C67.0295 536.615 67.0061 536.553 67.0061 536.478ZM69.9004 536.793V538.852H69.4527V536.234H69.8762L69.9004 536.793ZM69.7939 537.444L69.6076 537.437C69.6092 537.258 69.6358 537.092 69.6874 536.941C69.7391 536.787 69.8117 536.654 69.9052 536.541C69.9988 536.428 70.1101 536.341 70.2392 536.28C70.3699 536.217 70.5142 536.186 70.6723 536.186C70.8014 536.186 70.9176 536.203 71.0208 536.239C71.1241 536.273 71.212 536.327 71.2846 536.403C71.3588 536.479 71.4153 536.578 71.454 536.699C71.4927 536.818 71.5121 536.964 71.5121 537.137V538.852H71.062V537.132C71.062 536.995 71.0418 536.885 71.0015 536.803C70.9611 536.719 70.9022 536.658 70.8248 536.621C70.7474 536.582 70.6522 536.563 70.5392 536.563C70.4279 536.563 70.3263 536.586 70.2343 536.633C70.144 536.68 70.0657 536.745 69.9996 536.827C69.9351 536.909 69.8843 537.003 69.8471 537.11C69.8117 537.215 69.7939 537.326 69.7939 537.444ZM73.7941 538.247V536.234H74.2442V538.852H73.8158L73.7941 538.247ZM73.8788 537.696L74.0651 537.691C74.0651 537.865 74.0465 538.026 74.0094 538.175C73.9739 538.322 73.9159 538.449 73.8352 538.557C73.7545 538.665 73.6489 538.75 73.5182 538.811C73.3875 538.871 73.2286 538.901 73.0415 538.901C72.914 538.901 72.7971 538.882 72.6906 538.845C72.5857 538.808 72.4954 538.751 72.4195 538.673C72.3437 538.596 72.2848 538.495 72.2429 538.371C72.2026 538.247 72.1824 538.097 72.1824 537.923V536.234H72.6301V537.928C72.6301 538.046 72.643 538.143 72.6688 538.221C72.6962 538.297 72.7325 538.357 72.7777 538.402C72.8245 538.446 72.8761 538.476 72.9326 538.494C72.9906 538.512 73.0503 538.521 73.1116 538.521C73.302 538.521 73.4529 538.484 73.5642 538.412C73.6755 538.338 73.7553 538.238 73.8037 538.114C73.8538 537.988 73.8788 537.849 73.8788 537.696ZM75.3719 536.754V538.852H74.9218V536.234H75.3477L75.3719 536.754ZM75.2799 537.444L75.0718 537.437C75.0734 537.258 75.0968 537.092 75.142 536.941C75.1871 536.787 75.2541 536.654 75.3428 536.541C75.4316 536.428 75.5421 536.341 75.6744 536.28C75.8066 536.217 75.9599 536.186 76.1341 536.186C76.2568 536.186 76.3697 536.203 76.4729 536.239C76.5762 536.273 76.6657 536.327 76.7416 536.401C76.8174 536.475 76.8763 536.57 76.9182 536.686C76.9602 536.803 76.9811 536.943 76.9811 537.108V538.852H76.5334V537.129C76.5334 536.992 76.51 536.882 76.4633 536.8C76.4181 536.718 76.3536 536.658 76.2697 536.621C76.1858 536.582 76.0874 536.563 75.9744 536.563C75.8421 536.563 75.7316 536.586 75.6429 536.633C75.5542 536.68 75.4832 536.745 75.4299 536.827C75.3767 536.909 75.338 537.003 75.3138 537.11C75.2912 537.215 75.2799 537.326 75.2799 537.444ZM76.9763 537.197L76.6762 537.289C76.6778 537.145 76.7012 537.007 76.7464 536.875C76.7932 536.743 76.8601 536.625 76.9472 536.522C77.036 536.419 77.1449 536.337 77.2739 536.277C77.403 536.216 77.5506 536.186 77.7168 536.186C77.8571 536.186 77.9814 536.204 78.0895 536.241C78.1992 536.278 78.2911 536.336 78.3653 536.413C78.4412 536.489 78.4984 536.586 78.5371 536.706C78.5759 536.825 78.5952 536.967 78.5952 537.132V538.852H78.1451V537.127C78.1451 536.98 78.1217 536.866 78.0749 536.786C78.0298 536.703 77.9652 536.646 77.8813 536.614C77.7991 536.58 77.7007 536.563 77.5861 536.563C77.4877 536.563 77.4006 536.58 77.3248 536.614C77.2489 536.648 77.1852 536.695 77.1336 536.754C77.082 536.812 77.0424 536.879 77.015 536.955C76.9892 537.031 76.9763 537.112 76.9763 537.197ZM79.2704 535.135H79.7205V538.344L79.6818 538.852H79.2704V535.135ZM81.4895 537.521V537.572C81.4895 537.763 81.4669 537.939 81.4217 538.102C81.3765 538.263 81.3104 538.404 81.2233 538.523C81.1362 538.643 81.0297 538.735 80.9038 538.801C80.778 538.868 80.6336 538.901 80.4707 538.901C80.3045 538.901 80.1585 538.872 80.0327 538.816C79.9084 538.758 79.8036 538.675 79.7181 538.567C79.6326 538.459 79.564 538.328 79.5124 538.175C79.4624 538.021 79.4277 537.849 79.4083 537.657V537.434C79.4277 537.241 79.4624 537.067 79.5124 536.914C79.564 536.761 79.6326 536.63 79.7181 536.522C79.8036 536.412 79.9084 536.329 80.0327 536.273C80.1569 536.215 80.3013 536.186 80.4658 536.186C80.6304 536.186 80.7764 536.218 80.9038 536.282C81.0313 536.345 81.1378 536.436 81.2233 536.553C81.3104 536.671 81.3765 536.812 81.4217 536.977C81.4669 537.14 81.4895 537.321 81.4895 537.521ZM81.0394 537.572V537.521C81.0394 537.391 81.0273 537.268 81.0031 537.153C80.9789 537.037 80.9401 536.936 80.8869 536.849C80.8337 536.76 80.7635 536.69 80.6764 536.64C80.5893 536.589 80.482 536.563 80.3545 536.563C80.2416 536.563 80.1432 536.582 80.0593 536.621C79.977 536.66 79.9068 536.712 79.8488 536.778C79.7907 536.843 79.7431 536.917 79.706 537.001C79.6705 537.083 79.6439 537.169 79.6261 537.258V537.841C79.6519 537.954 79.6939 538.063 79.752 538.167C79.8116 538.271 79.8907 538.355 79.9891 538.422C80.0891 538.488 80.2126 538.521 80.3594 538.521C80.4804 538.521 80.5836 538.497 80.6691 538.448C80.7562 538.398 80.8264 538.33 80.8796 538.242C80.9345 538.155 80.9748 538.055 81.0006 537.94C81.0265 537.825 81.0394 537.703 81.0394 537.572ZM83.1423 538.901C82.96 538.901 82.7946 538.87 82.6462 538.809C82.4994 538.746 82.3728 538.658 82.2663 538.545C82.1614 538.432 82.0807 538.298 82.0243 538.143C81.9678 537.988 81.9396 537.819 81.9396 537.635V537.533C81.9396 537.32 81.971 537.131 82.034 536.965C82.0969 536.797 82.1824 536.655 82.2905 536.539C82.3986 536.423 82.5212 536.335 82.6583 536.275C82.7954 536.215 82.9374 536.186 83.0842 536.186C83.2714 536.186 83.4327 536.218 83.5682 536.282C83.7053 536.347 83.8175 536.437 83.9046 536.553C83.9917 536.668 84.0562 536.803 84.0982 536.96C84.1401 537.115 84.1611 537.284 84.1611 537.468V537.669H82.2058V537.304H83.7134V537.27C83.7069 537.153 83.6827 537.041 83.6408 536.931C83.6005 536.821 83.5359 536.731 83.4472 536.66C83.3585 536.589 83.2375 536.553 83.0842 536.553C82.9826 536.553 82.889 536.575 82.8035 536.619C82.718 536.661 82.6446 536.724 82.5833 536.807C82.522 536.891 82.4744 536.994 82.4405 537.115C82.4066 537.236 82.3897 537.375 82.3897 537.533V537.635C82.3897 537.759 82.4066 537.876 82.4405 537.986C82.476 538.094 82.5268 538.189 82.593 538.272C82.6607 538.354 82.7422 538.418 82.8374 538.465C82.9342 538.512 83.0439 538.535 83.1665 538.535C83.3246 538.535 83.4585 538.503 83.5682 538.438C83.6779 538.374 83.7739 538.288 83.8562 538.18L84.1272 538.395C84.0707 538.48 83.9989 538.562 83.9118 538.639C83.8247 538.717 83.7174 538.78 83.59 538.828C83.4641 538.876 83.3149 538.901 83.1423 538.901ZM85.1315 536.645V538.852H84.6838V536.234H85.1194L85.1315 536.645ZM85.9494 536.219L85.947 536.636C85.9099 536.628 85.8744 536.623 85.8405 536.621C85.8083 536.618 85.7712 536.616 85.7292 536.616C85.626 536.616 85.5348 536.632 85.4558 536.665C85.3767 536.697 85.3097 536.742 85.2549 536.8C85.2 536.858 85.1565 536.928 85.1242 537.008C85.0936 537.087 85.0734 537.174 85.0637 537.27L84.9379 537.342C84.9379 537.184 84.9532 537.036 84.9839 536.897C85.0161 536.758 85.0653 536.636 85.1315 536.529C85.1976 536.421 85.2815 536.337 85.3832 536.277C85.4864 536.216 85.609 536.186 85.751 536.186C85.7833 536.186 85.8204 536.19 85.8623 536.198C85.9042 536.204 85.9333 536.211 85.9494 536.219ZM64.2813 541.135H64.7314V544.344L64.6927 544.852H64.2813V541.135ZM66.5004 543.521V543.572C66.5004 543.763 66.4778 543.939 66.4326 544.102C66.3874 544.263 66.3213 544.404 66.2342 544.523C66.1471 544.643 66.0406 544.735 65.9147 544.801C65.7889 544.868 65.6445 544.901 65.4816 544.901C65.3154 544.901 65.1694 544.872 65.0436 544.816C64.9193 544.758 64.8145 544.675 64.729 544.567C64.6435 544.459 64.5749 544.328 64.5233 544.175C64.4733 544.021 64.4386 543.849 64.4192 543.657V543.434C64.4386 543.241 64.4733 543.067 64.5233 542.914C64.5749 542.761 64.6435 542.63 64.729 542.522C64.8145 542.412 64.9193 542.329 65.0436 542.273C65.1678 542.215 65.3122 542.186 65.4767 542.186C65.6413 542.186 65.7873 542.218 65.9147 542.282C66.0422 542.345 66.1487 542.436 66.2342 542.553C66.3213 542.671 66.3874 542.812 66.4326 542.977C66.4778 543.14 66.5004 543.321 66.5004 543.521ZM66.0503 543.572V543.521C66.0503 543.391 66.0382 543.268 66.014 543.153C65.9898 543.037 65.951 542.936 65.8978 542.849C65.8446 542.76 65.7744 542.69 65.6873 542.64C65.6002 542.589 65.4929 542.563 65.3654 542.563C65.2525 542.563 65.1541 542.582 65.0702 542.621C64.9879 542.66 64.9177 542.712 64.8597 542.778C64.8016 542.843 64.754 542.917 64.7169 543.001C64.6814 543.083 64.6548 543.169 64.637 543.258V543.841C64.6628 543.954 64.7048 544.063 64.7629 544.167C64.8225 544.271 64.9016 544.355 65 544.422C65.1 544.488 65.2235 544.521 65.3703 544.521C65.4913 544.521 65.5945 544.497 65.68 544.448C65.7671 544.398 65.8373 544.33 65.8905 544.242C65.9454 544.155 65.9857 544.055 66.0115 543.94C66.0374 543.825 66.0503 543.703 66.0503 543.572ZM67.0473 544.615C67.0473 544.539 67.0707 544.476 67.1175 544.424C67.1659 544.371 67.2352 544.344 67.3256 544.344C67.4159 544.344 67.4845 544.371 67.5313 544.424C67.5797 544.476 67.6039 544.539 67.6039 544.615C67.6039 544.689 67.5797 544.752 67.5313 544.804C67.4845 544.856 67.4159 544.881 67.3256 544.881C67.2352 544.881 67.1659 544.856 67.1175 544.804C67.0707 544.752 67.0473 544.689 67.0473 544.615ZM67.0497 542.478C67.0497 542.403 67.0731 542.339 67.1199 542.287C67.1683 542.234 67.2376 542.207 67.328 542.207C67.4183 542.207 67.4869 542.234 67.5337 542.287C67.5821 542.339 67.6063 542.403 67.6063 542.478C67.6063 542.553 67.5821 542.615 67.5337 542.667C67.4869 542.719 67.4183 542.745 67.328 542.745C67.2376 542.745 67.1683 542.719 67.1199 542.667C67.0731 542.615 67.0497 542.553 67.0497 542.478ZM69.9439 542.793V544.852H69.4963V542.234H69.9197L69.9439 542.793ZM69.8375 543.444L69.6511 543.437C69.6527 543.258 69.6794 543.092 69.731 542.941C69.7826 542.787 69.8552 542.654 69.9488 542.541C70.0424 542.428 70.1537 542.341 70.2827 542.28C70.4134 542.217 70.5578 542.186 70.7159 542.186C70.845 542.186 70.9611 542.203 71.0644 542.239C71.1676 542.273 71.2556 542.327 71.3281 542.403C71.4024 542.479 71.4588 542.578 71.4975 542.699C71.5363 542.818 71.5556 542.964 71.5556 543.137V544.852H71.1055V543.132C71.1055 542.995 71.0853 542.885 71.045 542.803C71.0047 542.719 70.9458 542.658 70.8684 542.621C70.7909 542.582 70.6957 542.563 70.5828 542.563C70.4715 542.563 70.3699 542.586 70.2779 542.633C70.1876 542.68 70.1093 542.745 70.0432 542.827C69.9786 542.909 69.9278 543.003 69.8907 543.11C69.8552 543.215 69.8375 543.326 69.8375 543.444ZM73.8376 544.247V542.234H74.2877V544.852H73.8594L73.8376 544.247ZM73.9223 543.696L74.1087 543.691C74.1087 543.865 74.0901 544.026 74.053 544.175C74.0175 544.322 73.9594 544.449 73.8788 544.557C73.7981 544.665 73.6924 544.75 73.5618 544.811C73.4311 544.871 73.2722 544.901 73.085 544.901C72.9576 544.901 72.8406 544.882 72.7341 544.845C72.6293 544.808 72.5389 544.751 72.4631 544.673C72.3873 544.596 72.3284 544.495 72.2864 544.371C72.2461 544.247 72.2259 544.097 72.2259 543.923V542.234H72.6736V543.928C72.6736 544.046 72.6865 544.143 72.7124 544.221C72.7398 544.297 72.7761 544.357 72.8213 544.402C72.868 544.446 72.9197 544.476 72.9761 544.494C73.0342 544.512 73.0939 544.521 73.1552 544.521C73.3456 544.521 73.4964 544.484 73.6077 544.412C73.719 544.338 73.7989 544.238 73.8473 544.114C73.8973 543.988 73.9223 543.849 73.9223 543.696ZM75.4154 542.754V544.852H74.9653V542.234H75.3912L75.4154 542.754ZM75.3235 543.444L75.1154 543.437C75.117 543.258 75.1404 543.092 75.1855 542.941C75.2307 542.787 75.2977 542.654 75.3864 542.541C75.4751 542.428 75.5856 542.341 75.7179 542.28C75.8502 542.217 76.0035 542.186 76.1777 542.186C76.3003 542.186 76.4132 542.203 76.5165 542.239C76.6197 542.273 76.7093 542.327 76.7851 542.401C76.8609 542.475 76.9198 542.57 76.9618 542.686C77.0037 542.803 77.0247 542.943 77.0247 543.108V544.852H76.577V543.129C76.577 542.992 76.5536 542.882 76.5068 542.8C76.4616 542.718 76.3971 542.658 76.3132 542.621C76.2293 542.582 76.1309 542.563 76.018 542.563C75.8857 542.563 75.7752 542.586 75.6865 542.633C75.5977 542.68 75.5267 542.745 75.4735 542.827C75.4203 542.909 75.3815 543.003 75.3573 543.11C75.3348 543.215 75.3235 543.326 75.3235 543.444ZM77.0198 543.197L76.7198 543.289C76.7214 543.145 76.7448 543.007 76.79 542.875C76.8367 542.743 76.9037 542.625 76.9908 542.522C77.0795 542.419 77.1884 542.337 77.3175 542.277C77.4466 542.216 77.5942 542.186 77.7603 542.186C77.9007 542.186 78.0249 542.204 78.133 542.241C78.2427 542.278 78.3347 542.336 78.4089 542.413C78.4847 542.489 78.542 542.586 78.5807 542.706C78.6194 542.825 78.6388 542.967 78.6388 543.132V544.852H78.1887V543.127C78.1887 542.98 78.1653 542.866 78.1185 542.786C78.0733 542.703 78.0088 542.646 77.9249 542.614C77.8426 542.58 77.7442 542.563 77.6297 542.563C77.5313 542.563 77.4441 542.58 77.3683 542.614C77.2925 542.648 77.2288 542.695 77.1771 542.754C77.1255 542.812 77.086 542.879 77.0586 542.955C77.0328 543.031 77.0198 543.112 77.0198 543.197ZM79.3139 541.135H79.7641V544.344L79.7253 544.852H79.3139V541.135ZM81.533 543.521V543.572C81.533 543.763 81.5104 543.939 81.4653 544.102C81.4201 544.263 81.354 544.404 81.2668 544.523C81.1797 544.643 81.0732 544.735 80.9474 544.801C80.8216 544.868 80.6772 544.901 80.5142 544.901C80.3481 544.901 80.2021 544.872 80.0762 544.816C79.952 544.758 79.8471 544.675 79.7616 544.567C79.6761 544.459 79.6076 544.328 79.5559 544.175C79.5059 544.021 79.4712 543.849 79.4519 543.657V543.434C79.4712 543.241 79.5059 543.067 79.5559 542.914C79.6076 542.761 79.6761 542.63 79.7616 542.522C79.8471 542.412 79.952 542.329 80.0762 542.273C80.2005 542.215 80.3448 542.186 80.5094 542.186C80.674 542.186 80.82 542.218 80.9474 542.282C81.0749 542.345 81.1813 542.436 81.2668 542.553C81.354 542.671 81.4201 542.812 81.4653 542.977C81.5104 543.14 81.533 543.321 81.533 543.521ZM81.0829 543.572V543.521C81.0829 543.391 81.0708 543.268 81.0466 543.153C81.0224 543.037 80.9837 542.936 80.9305 542.849C80.8772 542.76 80.807 542.69 80.7199 542.64C80.6328 542.589 80.5255 542.563 80.3981 542.563C80.2851 542.563 80.1867 542.582 80.1028 542.621C80.0206 542.66 79.9504 542.712 79.8923 542.778C79.8342 542.843 79.7866 542.917 79.7495 543.001C79.714 543.083 79.6874 543.169 79.6697 543.258V543.841C79.6955 543.954 79.7374 544.063 79.7955 544.167C79.8552 544.271 79.9343 544.355 80.0327 544.422C80.1327 544.488 80.2561 544.521 80.4029 544.521C80.5239 544.521 80.6272 544.497 80.7127 544.448C80.7998 544.398 80.87 544.33 80.9232 544.242C80.9781 544.155 81.0184 544.055 81.0442 543.94C81.07 543.825 81.0829 543.703 81.0829 543.572ZM83.1859 544.901C83.0035 544.901 82.8382 544.87 82.6898 544.809C82.543 544.746 82.4163 544.658 82.3098 544.545C82.205 544.432 82.1243 544.298 82.0678 544.143C82.0114 543.988 81.9831 543.819 81.9831 543.635V543.533C81.9831 543.32 82.0146 543.131 82.0775 542.965C82.1404 542.797 82.2259 542.655 82.334 542.539C82.4421 542.423 82.5647 542.335 82.7019 542.275C82.839 542.215 82.981 542.186 83.1278 542.186C83.3149 542.186 83.4762 542.218 83.6118 542.282C83.7489 542.347 83.861 542.437 83.9481 542.553C84.0352 542.668 84.0998 542.803 84.1417 542.96C84.1837 543.115 84.2046 543.284 84.2046 543.468V543.669H82.2493V543.304H83.757V543.27C83.7505 543.153 83.7263 543.041 83.6844 542.931C83.644 542.821 83.5795 542.731 83.4908 542.66C83.402 542.589 83.281 542.553 83.1278 542.553C83.0261 542.553 82.9326 542.575 82.8471 542.619C82.7616 542.661 82.6882 542.724 82.6268 542.807C82.5655 542.891 82.5179 542.994 82.4841 543.115C82.4502 543.236 82.4333 543.375 82.4333 543.533V543.635C82.4333 543.759 82.4502 543.876 82.4841 543.986C82.5196 544.094 82.5704 544.189 82.6365 544.272C82.7043 544.354 82.7858 544.418 82.8809 544.465C82.9777 544.512 83.0874 544.535 83.2101 544.535C83.3682 544.535 83.5021 544.503 83.6118 544.438C83.7215 544.374 83.8175 544.288 83.8997 544.18L84.1708 544.395C84.1143 544.48 84.0425 544.562 83.9554 544.639C83.8683 544.717 83.761 544.78 83.6335 544.828C83.5077 544.876 83.3585 544.901 83.1859 544.901ZM85.175 542.645V544.852H84.7274V542.234H85.1629L85.175 542.645ZM85.993 542.219L85.9906 542.636C85.9535 542.628 85.918 542.623 85.8841 542.621C85.8518 542.618 85.8147 542.616 85.7728 542.616C85.6695 542.616 85.5784 542.632 85.4993 542.665C85.4203 542.697 85.3533 542.742 85.2985 542.8C85.2436 542.858 85.2 542.928 85.1678 543.008C85.1371 543.087 85.117 543.174 85.1073 543.27L84.9814 543.342C84.9814 543.184 84.9968 543.036 85.0274 542.897C85.0597 542.758 85.1089 542.636 85.175 542.529C85.2412 542.421 85.3251 542.337 85.4267 542.277C85.53 542.216 85.6526 542.186 85.7945 542.186C85.8268 542.186 85.8639 542.19 85.9059 542.198C85.9478 542.204 85.9768 542.211 85.993 542.219Z" fill="#F8F4E3"/>
<g filter="url(#filter4_d_31_658)">
<path d="M155.008 540.639C155.056 540.591 155.056 540.513 155.008 540.464L154.219 539.676C154.171 539.627 154.092 539.627 154.044 539.676C153.996 539.724 153.996 539.802 154.044 539.851L154.745 540.552L154.044 541.253C153.996 541.301 153.996 541.379 154.044 541.428C154.092 541.476 154.171 541.476 154.219 541.428L155.008 540.639ZM144.76 540.676H154.92V540.428H144.76V540.676Z" fill="white"/>
</g>
<g filter="url(#filter5_d_31_658)">
<rect x="105.236" y="532.994" width="39.4005" height="14.6203" rx="0.867306" stroke="#F27654" stroke-width="0.247802" shape-rendering="crispEdges"/>
</g>
<path d="M121.614 538.874V537.526C121.614 537.423 121.593 537.333 121.551 537.257C121.511 537.18 121.449 537.12 121.367 537.078C121.285 537.036 121.183 537.015 121.062 537.015C120.949 537.015 120.85 537.035 120.765 537.073C120.681 537.112 120.615 537.163 120.566 537.226C120.519 537.289 120.496 537.357 120.496 537.429H120.048C120.048 537.336 120.072 537.243 120.121 537.151C120.169 537.059 120.239 536.976 120.329 536.902C120.421 536.826 120.531 536.766 120.658 536.723C120.787 536.677 120.931 536.655 121.089 536.655C121.279 536.655 121.447 536.687 121.592 536.752C121.739 536.816 121.854 536.914 121.936 537.044C122.02 537.173 122.062 537.336 122.062 537.531V538.75C122.062 538.838 122.069 538.93 122.083 539.029C122.1 539.127 122.123 539.212 122.154 539.283V539.322H121.687C121.664 539.27 121.646 539.201 121.633 539.116C121.62 539.029 121.614 538.948 121.614 538.874ZM121.691 537.734L121.696 538.049H121.244C121.116 538.049 121.003 538.059 120.902 538.08C120.802 538.099 120.719 538.129 120.651 538.17C120.583 538.21 120.531 538.261 120.496 538.322C120.46 538.382 120.443 538.452 120.443 538.533C120.443 538.615 120.461 538.69 120.498 538.758C120.535 538.825 120.591 538.879 120.665 538.92C120.741 538.959 120.834 538.978 120.944 538.978C121.081 538.978 121.202 538.949 121.307 538.891C121.411 538.833 121.495 538.762 121.556 538.678C121.619 538.594 121.653 538.512 121.658 538.433L121.849 538.649C121.837 538.717 121.807 538.792 121.757 538.874C121.707 538.956 121.64 539.035 121.556 539.111C121.474 539.185 121.375 539.247 121.261 539.297C121.148 539.346 121.02 539.37 120.878 539.37C120.701 539.37 120.545 539.335 120.411 539.266C120.279 539.197 120.176 539.104 120.101 538.988C120.029 538.87 119.993 538.738 119.993 538.593C119.993 538.453 120.02 538.329 120.075 538.223C120.13 538.115 120.209 538.025 120.312 537.954C120.415 537.882 120.54 537.827 120.685 537.79C120.83 537.753 120.992 537.734 121.171 537.734H121.691ZM126.04 536.962V537.352H124.022V536.962H126.04ZM126.04 537.966V538.356H124.022V537.966H126.04ZM130.108 537.279V537.816C130.108 538.105 130.082 538.349 130.031 538.547C129.979 538.746 129.905 538.905 129.808 539.026C129.711 539.147 129.594 539.235 129.457 539.29C129.321 539.343 129.168 539.37 128.997 539.37C128.862 539.37 128.737 539.353 128.622 539.319C128.508 539.285 128.404 539.231 128.312 539.157C128.222 539.081 128.145 538.983 128.08 538.862C128.016 538.741 127.966 538.594 127.932 538.421C127.899 538.249 127.882 538.047 127.882 537.816V537.279C127.882 536.99 127.907 536.748 127.959 536.553C128.012 536.358 128.087 536.201 128.184 536.084C128.281 535.964 128.397 535.879 128.533 535.827C128.67 535.776 128.823 535.75 128.992 535.75C129.129 535.75 129.255 535.767 129.37 535.801C129.486 535.833 129.589 535.885 129.68 535.958C129.77 536.029 129.847 536.124 129.91 536.243C129.974 536.361 130.023 536.506 130.057 536.677C130.091 536.848 130.108 537.048 130.108 537.279ZM129.658 537.889V537.204C129.658 537.046 129.648 536.907 129.629 536.788C129.611 536.667 129.584 536.564 129.549 536.478C129.513 536.393 129.468 536.323 129.413 536.27C129.36 536.217 129.298 536.178 129.227 536.154C129.158 536.128 129.079 536.115 128.992 536.115C128.886 536.115 128.791 536.135 128.709 536.176C128.627 536.214 128.558 536.276 128.501 536.362C128.446 536.447 128.404 536.56 128.375 536.698C128.346 536.837 128.332 537.006 128.332 537.204V537.889C128.332 538.047 128.341 538.187 128.358 538.308C128.378 538.429 128.406 538.533 128.443 538.622C128.48 538.709 128.525 538.781 128.579 538.838C128.632 538.894 128.693 538.936 128.762 538.963C128.833 538.989 128.912 539.002 128.997 539.002C129.107 539.002 129.203 538.981 129.285 538.939C129.367 538.897 129.436 538.832 129.491 538.743C129.547 538.653 129.589 538.537 129.617 538.397C129.644 538.255 129.658 538.086 129.658 537.889ZM120.024 541.605H120.474V544.813L120.435 545.322H120.024V541.605ZM122.243 543.991V544.041C122.243 544.232 122.221 544.408 122.175 544.571C122.13 544.733 122.064 544.873 121.977 544.992C121.89 545.112 121.783 545.205 121.658 545.271C121.532 545.337 121.387 545.37 121.224 545.37C121.058 545.37 120.912 545.342 120.786 545.285C120.662 545.227 120.557 545.144 120.472 545.036C120.386 544.928 120.318 544.797 120.266 544.644C120.216 544.491 120.181 544.318 120.162 544.126V543.903C120.181 543.71 120.216 543.536 120.266 543.383C120.318 543.23 120.386 543.099 120.472 542.991C120.557 542.881 120.662 542.798 120.786 542.742C120.911 542.684 121.055 542.655 121.22 542.655C121.384 542.655 121.53 542.687 121.658 542.752C121.785 542.814 121.891 542.905 121.977 543.023C122.064 543.14 122.13 543.282 122.175 543.446C122.221 543.609 122.243 543.791 122.243 543.991ZM121.793 544.041V543.991C121.793 543.86 121.781 543.737 121.757 543.623C121.733 543.507 121.694 543.405 121.641 543.318C121.587 543.229 121.517 543.16 121.43 543.11C121.343 543.058 121.236 543.032 121.108 543.032C120.995 543.032 120.897 543.052 120.813 543.09C120.731 543.129 120.661 543.182 120.602 543.248C120.544 543.312 120.497 543.386 120.46 543.47C120.424 543.553 120.398 543.638 120.38 543.727V544.31C120.406 544.423 120.448 544.532 120.506 544.637C120.565 544.74 120.644 544.825 120.743 544.891C120.843 544.957 120.966 544.99 121.113 544.99C121.234 544.99 121.337 544.966 121.423 544.917C121.51 544.867 121.58 544.799 121.633 544.712C121.688 544.625 121.729 544.524 121.754 544.409C121.78 544.295 121.793 544.172 121.793 544.041ZM126.084 542.962V543.352H124.065V542.962H126.084ZM126.084 543.966V544.356H124.065V543.966H126.084ZM129.411 541.779V545.322H128.963V542.338L128.061 542.667V542.263L129.341 541.779H129.411Z" fill="#F8F4E3"/>
<g filter="url(#filter6_d_31_658)">
<path d="M244.872 525.436L264.696 525.436" stroke="white" stroke-width="0.247802"/>
</g>
<g filter="url(#filter7_d_31_658)">
<path d="M244.872 554.429L264.696 554.429" stroke="white" stroke-width="0.247802"/>
</g>
<g filter="url(#filter8_d_31_658)">
<rect x="205.596" y="547.119" width="39.4005" height="14.6203" rx="0.867306" stroke="#E7F591" stroke-width="0.247802" shape-rendering="crispEdges"/>
</g>
<path d="M219.554 555.065H218.612V554.685H219.554C219.736 554.685 219.884 554.656 219.997 554.597C220.11 554.539 220.192 554.459 220.243 554.355C220.297 554.252 220.323 554.134 220.323 554.002C220.323 553.881 220.297 553.767 220.243 553.661C220.192 553.554 220.11 553.469 219.997 553.404C219.884 553.338 219.736 553.305 219.554 553.305H218.721V556.446H218.254V552.923H219.554C219.82 552.923 220.045 552.969 220.229 553.061C220.413 553.153 220.552 553.28 220.648 553.443C220.743 553.604 220.79 553.789 220.79 553.997C220.79 554.223 220.743 554.416 220.648 554.576C220.552 554.735 220.413 554.857 220.229 554.941C220.045 555.023 219.82 555.065 219.554 555.065ZM221.761 554.239V556.446H221.313V553.828H221.749L221.761 554.239ZM222.579 553.813L222.576 554.23C222.539 554.222 222.504 554.217 222.47 554.215C222.438 554.212 222.4 554.21 222.358 554.21C222.255 554.21 222.164 554.226 222.085 554.259C222.006 554.291 221.939 554.336 221.884 554.394C221.829 554.452 221.786 554.522 221.753 554.602C221.723 554.681 221.703 554.768 221.693 554.864L221.567 554.936C221.567 554.778 221.582 554.63 221.613 554.491C221.645 554.352 221.695 554.23 221.761 554.123C221.827 554.015 221.911 553.931 222.012 553.871C222.116 553.81 222.238 553.78 222.38 553.78C222.413 553.78 222.45 553.784 222.492 553.792C222.534 553.798 222.563 553.805 222.579 553.813ZM223.479 553.828V556.446H223.029V553.828H223.479ZM222.995 553.133C222.995 553.061 223.017 552.999 223.06 552.949C223.105 552.899 223.172 552.874 223.259 552.874C223.344 552.874 223.41 552.899 223.455 552.949C223.501 552.999 223.525 553.061 223.525 553.133C223.525 553.203 223.501 553.262 223.455 553.312C223.41 553.361 223.344 553.385 223.259 553.385C223.172 553.385 223.105 553.361 223.06 553.312C223.017 553.262 222.995 553.203 222.995 553.133ZM224.645 554.387V556.446H224.198V553.828H224.621L224.645 554.387ZM224.539 555.038L224.353 555.031C224.354 554.852 224.381 554.686 224.432 554.535C224.484 554.381 224.557 554.248 224.65 554.135C224.744 554.022 224.855 553.935 224.984 553.874C225.115 553.811 225.259 553.78 225.417 553.78C225.546 553.78 225.662 553.797 225.766 553.833C225.869 553.867 225.957 553.921 226.03 553.997C226.104 554.073 226.16 554.172 226.199 554.293C226.238 554.412 226.257 554.558 226.257 554.731V556.446H225.807V554.726C225.807 554.589 225.787 554.479 225.746 554.397C225.706 554.313 225.647 554.252 225.57 554.215C225.492 554.176 225.397 554.157 225.284 554.157C225.173 554.157 225.071 554.18 224.979 554.227C224.889 554.274 224.811 554.339 224.745 554.421C224.68 554.503 224.629 554.597 224.592 554.704C224.557 554.809 224.539 554.92 224.539 555.038ZM228.033 553.828V554.172H226.618V553.828H228.033ZM227.097 553.191H227.544V555.798C227.544 555.886 227.558 555.953 227.586 555.999C227.613 556.044 227.648 556.074 227.692 556.088C227.736 556.103 227.782 556.11 227.832 556.11C227.869 556.11 227.908 556.107 227.949 556.1C227.99 556.092 228.022 556.086 228.043 556.081L228.045 556.446C228.01 556.458 227.963 556.468 227.905 556.478C227.849 556.489 227.78 556.495 227.699 556.495C227.59 556.495 227.489 556.473 227.397 556.429C227.305 556.386 227.231 556.313 227.177 556.212C227.123 556.108 227.097 555.97 227.097 555.795V553.191ZM228.539 556.209C228.539 556.133 228.562 556.07 228.609 556.018C228.658 555.965 228.727 555.938 228.817 555.938C228.908 555.938 228.976 555.965 229.023 556.018C229.071 556.07 229.096 556.133 229.096 556.209C229.096 556.283 229.071 556.346 229.023 556.398C228.976 556.45 228.908 556.475 228.817 556.475C228.727 556.475 228.658 556.45 228.609 556.398C228.562 556.346 228.539 556.283 228.539 556.209ZM228.541 554.072C228.541 553.997 228.565 553.933 228.612 553.881C228.66 553.828 228.729 553.801 228.82 553.801C228.91 553.801 228.979 553.828 229.025 553.881C229.074 553.933 229.098 553.997 229.098 554.072C229.098 554.147 229.074 554.209 229.025 554.261C228.979 554.313 228.91 554.339 228.82 554.339C228.729 554.339 228.66 554.313 228.612 554.261C228.565 554.209 228.541 554.147 228.541 554.072ZM231.724 556.175L232.452 553.828H232.931L231.881 556.85C231.857 556.915 231.824 556.984 231.784 557.059C231.745 557.134 231.695 557.206 231.634 557.274C231.573 557.342 231.499 557.397 231.411 557.438C231.326 557.482 231.224 557.504 231.104 557.504C231.069 557.504 231.023 557.499 230.969 557.489C230.914 557.48 230.875 557.472 230.852 557.465L230.85 557.102C230.863 557.104 230.883 557.105 230.911 557.107C230.94 557.11 230.96 557.112 230.971 557.112C231.073 557.112 231.159 557.098 231.23 557.071C231.301 557.045 231.361 557 231.409 556.938C231.459 556.876 231.502 556.792 231.537 556.683L231.724 556.175ZM231.189 553.828L231.869 555.861L231.985 556.333L231.663 556.497L230.7 553.828H231.189Z" fill="#F8F4E3"/>
<g filter="url(#filter9_d_31_658)">
<rect x="205.596" y="518.126" width="39.4005" height="14.6203" rx="0.867306" stroke="#E7F591" stroke-width="0.247802" shape-rendering="crispEdges"/>
</g>
<path d="M219.498 526.072H218.557V525.692H219.498C219.68 525.692 219.828 525.663 219.941 525.605C220.054 525.547 220.136 525.466 220.188 525.363C220.241 525.26 220.268 525.142 220.268 525.009C220.268 524.888 220.241 524.775 220.188 524.668C220.136 524.562 220.054 524.476 219.941 524.412C219.828 524.346 219.68 524.313 219.498 524.313H218.666V527.454H218.199V523.93H219.498C219.764 523.93 219.989 523.976 220.173 524.068C220.357 524.16 220.497 524.288 220.592 524.45C220.687 524.612 220.735 524.797 220.735 525.005C220.735 525.23 220.687 525.423 220.592 525.583C220.497 525.743 220.357 525.865 220.173 525.948C219.989 526.031 219.764 526.072 219.498 526.072ZM221.705 525.247V527.454H221.257V524.835H221.693L221.705 525.247ZM222.523 524.821L222.521 525.237C222.484 525.229 222.448 525.224 222.414 525.222C222.382 525.219 222.345 525.218 222.303 525.218C222.2 525.218 222.108 525.234 222.029 525.266C221.95 525.298 221.883 525.343 221.829 525.402C221.774 525.46 221.73 525.529 221.698 525.61C221.667 525.689 221.647 525.776 221.637 525.871L221.511 525.944C221.511 525.785 221.527 525.637 221.557 525.498C221.59 525.36 221.639 525.237 221.705 525.13C221.771 525.022 221.855 524.938 221.957 524.879C222.06 524.817 222.183 524.787 222.325 524.787C222.357 524.787 222.394 524.791 222.436 524.799C222.478 524.805 222.507 524.813 222.523 524.821ZM223.423 524.835V527.454H222.973V524.835H223.423ZM222.939 524.141C222.939 524.068 222.961 524.007 223.005 523.957C223.05 523.907 223.116 523.882 223.203 523.882C223.289 523.882 223.354 523.907 223.399 523.957C223.446 524.007 223.469 524.068 223.469 524.141C223.469 524.21 223.446 524.27 223.399 524.32C223.354 524.368 223.289 524.392 223.203 524.392C223.116 524.392 223.05 524.368 223.005 524.32C222.961 524.27 222.939 524.21 222.939 524.141ZM224.59 525.394V527.454H224.142V524.835H224.565L224.59 525.394ZM224.483 526.045L224.297 526.038C224.298 525.859 224.325 525.694 224.377 525.542C224.428 525.389 224.501 525.256 224.594 525.143C224.688 525.03 224.799 524.943 224.928 524.881C225.059 524.818 225.204 524.787 225.362 524.787C225.491 524.787 225.607 524.805 225.71 524.84C225.813 524.874 225.901 524.929 225.974 525.005C226.048 525.08 226.105 525.179 226.143 525.3C226.182 525.419 226.201 525.565 226.201 525.738V527.454H225.751V525.733C225.751 525.596 225.731 525.486 225.691 525.404C225.65 525.32 225.592 525.26 225.514 525.222C225.437 525.184 225.341 525.164 225.229 525.164C225.117 525.164 225.016 525.188 224.924 525.235C224.833 525.281 224.755 525.346 224.689 525.428C224.624 525.51 224.574 525.605 224.536 525.711C224.501 525.816 224.483 525.927 224.483 526.045ZM227.978 524.835V525.179H226.562V524.835H227.978ZM227.041 524.199H227.489V526.805C227.489 526.894 227.502 526.961 227.53 527.006C227.557 527.051 227.593 527.081 227.636 527.095C227.68 527.11 227.727 527.117 227.777 527.117C227.814 527.117 227.853 527.114 227.893 527.108C227.935 527.099 227.966 527.093 227.987 527.088L227.99 527.454C227.954 527.465 227.907 527.475 227.849 527.485C227.793 527.496 227.724 527.502 227.644 527.502C227.534 527.502 227.433 527.48 227.341 527.437C227.249 527.393 227.176 527.321 227.121 527.219C227.068 527.116 227.041 526.977 227.041 526.803V524.199ZM228.483 527.216C228.483 527.141 228.507 527.077 228.554 527.025C228.602 526.972 228.671 526.945 228.762 526.945C228.852 526.945 228.921 526.972 228.967 527.025C229.016 527.077 229.04 527.141 229.04 527.216C229.04 527.291 229.016 527.354 228.967 527.405C228.921 527.457 228.852 527.483 228.762 527.483C228.671 527.483 228.602 527.457 228.554 527.405C228.507 527.354 228.483 527.291 228.483 527.216ZM228.486 525.08C228.486 525.004 228.509 524.94 228.556 524.888C228.604 524.835 228.674 524.809 228.764 524.809C228.854 524.809 228.923 524.835 228.97 524.888C229.018 524.94 229.042 525.004 229.042 525.08C229.042 525.154 229.018 525.217 228.97 525.268C228.923 525.32 228.854 525.346 228.764 525.346C228.674 525.346 228.604 525.32 228.556 525.268C228.509 525.217 228.486 525.154 228.486 525.08ZM231.235 524.835L231.808 525.789L232.389 524.835H232.914L232.058 526.127L232.941 527.454H232.423L231.818 526.471L231.213 527.454H230.693L231.574 526.127L230.719 524.835H231.235Z" fill="#F8F4E3"/>
<g filter="url(#filter10_d_31_658)">
<line x1="170.036" y1="530.887" x2="170.036" y2="525.436" stroke="white" stroke-width="0.247802"/>
</g>
<g filter="url(#filter11_d_31_658)">
<path d="M205.311 525.523C205.36 525.475 205.36 525.397 205.311 525.348L204.523 524.56C204.475 524.511 204.396 524.511 204.348 524.56C204.299 524.608 204.299 524.687 204.348 524.735L205.049 525.436L204.348 526.137C204.299 526.185 204.299 526.264 204.348 526.312C204.396 526.36 204.475 526.36 204.523 526.312L205.311 525.523ZM169.912 525.56H205.224V525.312H169.912V525.56Z" fill="white"/>
</g>
<path d="M184.949 521.404V524.223H184.581V521.404H184.949ZM185.855 521.404V521.71H183.677V521.404H185.855ZM186.43 522.458V524.223H186.072V522.128H186.42L186.43 522.458ZM187.084 522.117L187.082 522.45C187.052 522.443 187.024 522.439 186.997 522.438C186.971 522.436 186.941 522.434 186.908 522.434C186.825 522.434 186.752 522.447 186.689 522.473C186.626 522.499 186.572 522.535 186.528 522.581C186.485 522.628 186.45 522.683 186.424 522.748C186.399 522.811 186.383 522.881 186.375 522.957L186.275 523.015C186.275 522.889 186.287 522.77 186.312 522.659C186.337 522.548 186.377 522.45 186.43 522.365C186.483 522.278 186.55 522.211 186.631 522.163C186.714 522.114 186.812 522.09 186.925 522.09C186.951 522.09 186.981 522.093 187.014 522.099C187.048 522.105 187.071 522.11 187.084 522.117ZM188.697 523.739V522.128H189.057V524.223H188.714L188.697 523.739ZM188.764 523.298L188.913 523.294C188.913 523.433 188.899 523.562 188.869 523.681C188.841 523.799 188.794 523.9 188.73 523.987C188.665 524.073 188.581 524.141 188.476 524.19C188.371 524.238 188.244 524.262 188.095 524.262C187.993 524.262 187.899 524.247 187.814 524.217C187.73 524.188 187.658 524.142 187.597 524.08C187.536 524.018 187.489 523.937 187.456 523.838C187.423 523.739 187.407 523.619 187.407 523.48V522.128H187.765V523.484C187.765 523.578 187.776 523.656 187.796 523.718C187.818 523.779 187.847 523.827 187.884 523.863C187.921 523.898 187.962 523.922 188.007 523.937C188.054 523.951 188.102 523.958 188.151 523.958C188.303 523.958 188.424 523.929 188.513 523.871C188.602 523.811 188.666 523.732 188.704 523.633C188.744 523.532 188.764 523.42 188.764 523.298ZM190.472 524.262C190.326 524.262 190.194 524.237 190.075 524.188C189.958 524.138 189.856 524.068 189.771 523.977C189.687 523.887 189.623 523.78 189.578 523.656C189.532 523.532 189.51 523.396 189.51 523.249V523.168C189.51 522.998 189.535 522.846 189.585 522.713C189.636 522.579 189.704 522.465 189.79 522.372C189.877 522.279 189.975 522.209 190.085 522.161C190.194 522.114 190.308 522.09 190.425 522.09C190.575 522.09 190.704 522.116 190.813 522.167C190.922 522.219 191.012 522.291 191.082 522.384C191.151 522.476 191.203 522.584 191.237 522.709C191.27 522.833 191.287 522.969 191.287 523.116V523.276H189.723V522.984H190.929V522.957C190.924 522.864 190.904 522.774 190.871 522.686C190.838 522.598 190.787 522.526 190.716 522.469C190.645 522.412 190.548 522.384 190.425 522.384C190.344 522.384 190.269 522.401 190.201 522.436C190.132 522.47 190.074 522.52 190.025 522.587C189.976 522.654 189.938 522.736 189.911 522.833C189.883 522.93 189.87 523.042 189.87 523.168V523.249C189.87 523.349 189.883 523.442 189.911 523.53C189.939 523.617 189.98 523.693 190.032 523.759C190.087 523.824 190.152 523.876 190.228 523.913C190.305 523.951 190.393 523.97 190.491 523.97C190.618 523.97 190.725 523.944 190.813 523.892C190.9 523.84 190.977 523.771 191.043 523.685L191.26 523.857C191.215 523.926 191.157 523.991 191.088 524.053C191.018 524.115 190.932 524.165 190.83 524.204C190.729 524.243 190.61 524.262 190.472 524.262Z" fill="white"/>
<g filter="url(#filter12_d_31_658)">
<line x1="170.036" y1="550.216" x2="170.036" y2="554.429" stroke="white" stroke-width="0.247802"/>
</g>
<g filter="url(#filter13_d_31_658)">
<path d="M205.312 554.217C205.36 554.265 205.36 554.344 205.312 554.392L204.523 555.181C204.475 555.229 204.396 555.229 204.348 555.181C204.299 555.132 204.299 555.054 204.348 555.006L205.049 554.305L204.348 553.604C204.299 553.555 204.299 553.477 204.348 553.429C204.396 553.38 204.475 553.38 204.523 553.429L205.312 554.217ZM170.019 554.181L205.224 554.181L205.224 554.429L170.019 554.429L170.019 554.181Z" fill="white"/>
</g>
<path d="M183.508 554.61V557.429H183.135V554.61H183.508ZM184.689 555.878V556.184H183.427V555.878H184.689ZM184.881 554.61V554.916H183.427V554.61H184.881ZM186.441 557.071V555.992C186.441 555.91 186.425 555.838 186.391 555.777C186.359 555.715 186.31 555.668 186.244 555.634C186.178 555.601 186.097 555.584 186 555.584C185.91 555.584 185.83 555.599 185.762 555.63C185.695 555.661 185.642 555.702 185.603 555.752C185.566 555.803 185.547 555.857 185.547 555.915H185.189C185.189 555.84 185.208 555.766 185.247 555.692C185.286 555.619 185.341 555.552 185.413 555.493C185.487 555.432 185.575 555.384 185.677 555.349C185.78 555.313 185.895 555.295 186.021 555.295C186.173 555.295 186.308 555.321 186.424 555.373C186.541 555.424 186.633 555.502 186.699 555.607C186.766 555.71 186.799 555.84 186.799 555.996V556.972C186.799 557.042 186.805 557.116 186.817 557.194C186.83 557.273 186.848 557.341 186.873 557.398V557.429H186.499C186.481 557.387 186.467 557.333 186.457 557.264C186.446 557.194 186.441 557.13 186.441 557.071ZM186.503 556.159L186.507 556.41H186.145C186.043 556.41 185.952 556.419 185.872 556.436C185.792 556.451 185.725 556.475 185.671 556.507C185.617 556.539 185.575 556.58 185.547 556.629C185.518 556.677 185.504 556.733 185.504 556.798C185.504 556.863 185.519 556.923 185.549 556.978C185.578 557.032 185.623 557.075 185.682 557.107C185.743 557.138 185.817 557.154 185.905 557.154C186.015 557.154 186.112 557.131 186.195 557.084C186.279 557.038 186.346 556.981 186.395 556.914C186.445 556.847 186.472 556.781 186.476 556.718L186.629 556.891C186.62 556.945 186.596 557.005 186.556 557.071C186.515 557.136 186.462 557.2 186.395 557.26C186.329 557.32 186.25 557.369 186.159 557.409C186.068 557.448 185.966 557.467 185.853 557.467C185.711 557.467 185.586 557.44 185.479 557.384C185.373 557.329 185.291 557.254 185.231 557.162C185.173 557.067 185.144 556.962 185.144 556.846C185.144 556.734 185.166 556.635 185.21 556.55C185.254 556.463 185.317 556.392 185.4 556.335C185.482 556.277 185.582 556.233 185.698 556.203C185.814 556.174 185.944 556.159 186.087 556.159H186.503ZM187.752 554.455V557.429H187.392V554.455H187.752ZM189.547 556.873C189.547 556.821 189.535 556.774 189.512 556.73C189.49 556.685 189.444 556.644 189.374 556.608C189.306 556.57 189.203 556.538 189.065 556.511C188.948 556.487 188.843 556.458 188.749 556.424C188.656 556.39 188.577 556.35 188.511 556.302C188.446 556.254 188.397 556.198 188.362 556.134C188.327 556.069 188.309 555.994 188.309 555.907C188.309 555.824 188.328 555.746 188.364 555.673C188.401 555.599 188.453 555.534 188.52 555.477C188.589 555.42 188.671 555.376 188.766 555.344C188.862 555.311 188.968 555.295 189.086 555.295C189.254 555.295 189.397 555.325 189.516 555.384C189.634 555.444 189.725 555.523 189.789 555.622C189.852 555.721 189.883 555.83 189.883 555.95H189.525C189.525 555.892 189.508 555.835 189.473 555.781C189.439 555.726 189.39 555.68 189.324 555.644C189.259 555.608 189.18 555.59 189.086 555.59C188.986 555.59 188.906 555.605 188.844 555.636C188.783 555.666 188.739 555.704 188.71 555.75C188.683 555.797 188.67 555.846 188.67 555.897C188.67 555.936 188.676 555.971 188.689 556.002C188.703 556.032 188.728 556.059 188.762 556.085C188.797 556.11 188.846 556.133 188.91 556.155C188.973 556.177 189.054 556.199 189.152 556.221C189.323 556.259 189.465 556.306 189.576 556.36C189.687 556.414 189.769 556.481 189.823 556.559C189.878 556.638 189.905 556.734 189.905 556.846C189.905 556.938 189.885 557.022 189.847 557.098C189.809 557.174 189.754 557.24 189.682 557.295C189.611 557.349 189.526 557.392 189.427 557.423C189.328 557.453 189.218 557.467 189.095 557.467C188.911 557.467 188.755 557.435 188.627 557.369C188.499 557.303 188.402 557.218 188.337 557.113C188.271 557.009 188.238 556.898 188.238 556.782H188.598C188.603 556.88 188.631 556.958 188.683 557.016C188.735 557.073 188.798 557.114 188.873 557.138C188.948 557.162 189.022 557.173 189.095 557.173C189.194 557.173 189.276 557.16 189.341 557.134C189.408 557.109 189.459 557.073 189.494 557.028C189.529 556.983 189.547 556.931 189.547 556.873ZM191.244 557.467C191.099 557.467 190.966 557.443 190.848 557.394C190.73 557.344 190.629 557.273 190.544 557.183C190.46 557.093 190.395 556.985 190.35 556.861C190.305 556.738 190.282 556.602 190.282 556.455V556.374C190.282 556.203 190.307 556.052 190.358 555.919C190.408 555.784 190.476 555.671 190.563 555.578C190.649 555.485 190.747 555.415 190.857 555.367C190.967 555.319 191.08 555.295 191.198 555.295C191.348 555.295 191.477 555.321 191.585 555.373C191.695 555.424 191.785 555.497 191.854 555.59C191.924 555.681 191.976 555.79 192.009 555.915C192.043 556.039 192.059 556.174 192.059 556.321V556.482H190.495V556.19H191.701V556.163C191.696 556.07 191.677 555.979 191.643 555.892C191.611 555.804 191.559 555.732 191.488 555.675C191.417 555.618 191.321 555.59 191.198 555.59C191.117 555.59 191.042 555.607 190.973 555.642C190.905 555.675 190.846 555.726 190.797 555.793C190.748 555.86 190.71 555.942 190.683 556.039C190.656 556.135 190.642 556.247 190.642 556.374V556.455C190.642 556.554 190.656 556.648 190.683 556.736C190.711 556.822 190.752 556.898 190.805 556.964C190.859 557.03 190.924 557.082 191 557.119C191.078 557.156 191.166 557.175 191.264 557.175C191.39 557.175 191.497 557.149 191.585 557.098C191.673 557.046 191.75 556.977 191.815 556.891L192.032 557.063C191.987 557.131 191.93 557.196 191.86 557.258C191.79 557.32 191.704 557.371 191.603 557.409C191.502 557.448 191.382 557.467 191.244 557.467Z" fill="white"/>
<g filter="url(#filter14_d_31_658)">
<path d="M155.391 540.552L170.036 530.789L184.681 540.552L170.036 550.315L155.391 540.552Z" stroke="#1794EF" stroke-width="0.247802" shape-rendering="crispEdges"/>
</g>
<path d="M166.779 542.122V540.774C166.779 540.67 166.758 540.581 166.716 540.505C166.676 540.428 166.615 540.368 166.532 540.326C166.45 540.284 166.348 540.263 166.227 540.263C166.115 540.263 166.015 540.282 165.93 540.321C165.846 540.36 165.78 540.411 165.731 540.474C165.685 540.537 165.661 540.604 165.661 540.677H165.214C165.214 540.583 165.238 540.491 165.286 540.399C165.335 540.307 165.404 540.224 165.494 540.149C165.586 540.074 165.696 540.014 165.823 539.97C165.952 539.925 166.096 539.903 166.254 539.903C166.444 539.903 166.612 539.935 166.757 539.999C166.904 540.064 167.019 540.161 167.101 540.292C167.185 540.421 167.227 540.583 167.227 540.779V541.998C167.227 542.085 167.234 542.178 167.249 542.277C167.265 542.375 167.288 542.46 167.319 542.531V542.569H166.852C166.829 542.518 166.811 542.449 166.799 542.364C166.786 542.277 166.779 542.196 166.779 542.122ZM166.857 540.982L166.861 541.296H166.409C166.282 541.296 166.168 541.307 166.068 541.328C165.968 541.347 165.884 541.377 165.816 541.417C165.748 541.458 165.697 541.509 165.661 541.57C165.626 541.63 165.608 541.7 165.608 541.78C165.608 541.863 165.627 541.938 165.664 542.005C165.701 542.073 165.756 542.127 165.831 542.168C165.906 542.206 165.999 542.226 166.109 542.226C166.246 542.226 166.367 542.197 166.472 542.139C166.577 542.081 166.66 542.01 166.721 541.926C166.784 541.842 166.818 541.76 166.823 541.681L167.014 541.897C167.003 541.964 166.972 542.039 166.922 542.122C166.872 542.204 166.805 542.283 166.721 542.359C166.639 542.433 166.54 542.495 166.426 542.545C166.313 542.594 166.186 542.618 166.044 542.618C165.866 542.618 165.71 542.583 165.577 542.514C165.444 542.444 165.341 542.352 165.267 542.235C165.194 542.118 165.158 541.986 165.158 541.841C165.158 541.701 165.185 541.577 165.24 541.471C165.295 541.363 165.374 541.273 165.477 541.202C165.581 541.129 165.705 541.075 165.85 541.038C165.995 541 166.157 540.982 166.336 540.982H166.857ZM170.866 541.04L169.146 540.37V539.907L171.213 540.822V541.105L170.866 541.04ZM169.146 541.63L170.871 540.946L171.213 540.895V541.175L169.146 542.093V541.63ZM172.982 538.852H173.432V542.061L173.393 542.569H172.982V538.852ZM175.201 541.238V541.289C175.201 541.48 175.178 541.656 175.133 541.819C175.088 541.98 175.022 542.121 174.934 542.24C174.847 542.36 174.741 542.452 174.615 542.519C174.489 542.585 174.345 542.618 174.182 542.618C174.016 542.618 173.87 542.59 173.744 542.533C173.62 542.475 173.515 542.392 173.429 542.284C173.344 542.176 173.275 542.045 173.224 541.892C173.173 541.738 173.139 541.566 173.119 541.374V541.151C173.139 540.958 173.173 540.784 173.224 540.631C173.275 540.478 173.344 540.347 173.429 540.239C173.515 540.129 173.62 540.046 173.744 539.99C173.868 539.932 174.012 539.903 174.177 539.903C174.342 539.903 174.488 539.935 174.615 539.999C174.742 540.062 174.849 540.153 174.934 540.27C175.022 540.388 175.088 540.529 175.133 540.694C175.178 540.857 175.201 541.038 175.201 541.238ZM174.75 541.289V541.238C174.75 541.108 174.738 540.985 174.714 540.871C174.69 540.754 174.651 540.653 174.598 540.566C174.545 540.477 174.475 540.408 174.388 540.358C174.3 540.306 174.193 540.28 174.066 540.28C173.953 540.28 173.854 540.299 173.77 540.338C173.688 540.377 173.618 540.429 173.56 540.495C173.502 540.56 173.454 540.634 173.417 540.718C173.382 540.8 173.355 540.886 173.337 540.975V541.558C173.363 541.671 173.405 541.78 173.463 541.884C173.523 541.988 173.602 542.072 173.7 542.139C173.8 542.205 173.924 542.238 174.07 542.238C174.191 542.238 174.295 542.214 174.38 542.165C174.467 542.115 174.538 542.047 174.591 541.96C174.646 541.872 174.686 541.772 174.712 541.657C174.738 541.542 174.75 541.42 174.75 541.289Z" fill="#F8F4E3"/>
<g filter="url(#filter15_d_31_658)">
<path d="M264.572 555.09C264.937 555.09 265.233 554.794 265.233 554.429C265.233 554.064 264.937 553.768 264.572 553.768C264.207 553.768 263.912 554.064 263.912 554.429C263.912 554.794 264.207 555.09 264.572 555.09ZM264.572 526.097C264.937 526.097 265.233 525.801 265.233 525.436C265.233 525.071 264.937 524.775 264.572 524.775C264.207 524.775 263.912 525.071 263.912 525.436C263.912 525.801 264.207 526.097 264.572 526.097ZM264.696 554.429L264.696 525.436L264.448 525.436L264.448 554.429L264.696 554.429Z" fill="white"/>
</g>
<g filter="url(#filter16_d_31_658)">
<path d="M275.192 540.144C275.24 540.095 275.24 540.017 275.192 539.969L274.403 539.18C274.355 539.132 274.276 539.132 274.228 539.18C274.179 539.228 274.179 539.307 274.228 539.355L274.929 540.056L274.228 540.757C274.179 540.805 274.179 540.884 274.228 540.932C274.276 540.981 274.355 540.981 274.403 540.932L275.192 540.144ZM264.696 540.18H275.104V539.932H264.696V540.18Z" fill="white"/>
</g>
<g filter="url(#filter17_d_31_658)">
<rect x="275.476" y="532.994" width="39.4005" height="14.6203" rx="7.31015" stroke="#F14444" stroke-width="0.247802" shape-rendering="crispEdges"/>
</g>
<path d="M293.77 541.942V542.322H291.905V541.942H293.77ZM291.999 538.798V542.322H291.532V538.798H291.999ZM293.524 540.313V540.693H291.905V540.313H293.524ZM293.746 538.798V539.18H291.905V538.798H293.746ZM294.729 540.262V542.322H294.281V539.703H294.704L294.729 540.262ZM294.622 540.913L294.436 540.906C294.437 540.727 294.464 540.561 294.516 540.41C294.567 540.257 294.64 540.123 294.733 540.01C294.827 539.898 294.938 539.81 295.067 539.749C295.198 539.686 295.343 539.655 295.501 539.655C295.63 539.655 295.746 539.673 295.849 539.708C295.952 539.742 296.04 539.797 296.113 539.873C296.187 539.948 296.244 540.047 296.282 540.168C296.321 540.287 296.34 540.433 296.34 540.606V542.322H295.89V540.601C295.89 540.464 295.87 540.354 295.83 540.272C295.789 540.188 295.731 540.127 295.653 540.09C295.576 540.052 295.48 540.032 295.368 540.032C295.256 540.032 295.155 540.056 295.063 540.102C294.972 540.149 294.894 540.214 294.828 540.296C294.763 540.378 294.713 540.473 294.675 540.579C294.64 540.684 294.622 540.795 294.622 540.913ZM298.671 541.813V538.605H299.121V542.322H298.709L298.671 541.813ZM296.909 541.041V540.991C296.909 540.791 296.933 540.609 296.982 540.446C297.032 540.282 297.102 540.14 297.192 540.023C297.284 539.905 297.393 539.814 297.519 539.752C297.646 539.687 297.788 539.655 297.945 539.655C298.109 539.655 298.253 539.684 298.376 539.742C298.5 539.798 298.605 539.881 298.69 539.991C298.777 540.099 298.846 540.23 298.896 540.383C298.946 540.536 298.98 540.71 299 540.903V541.126C298.982 541.318 298.947 541.491 298.896 541.644C298.846 541.797 298.777 541.928 298.69 542.036C298.605 542.144 298.5 542.227 298.376 542.285C298.251 542.342 298.106 542.37 297.94 542.37C297.787 542.37 297.646 542.337 297.519 542.271C297.393 542.205 297.284 542.112 297.192 541.992C297.102 541.873 297.032 541.733 296.982 541.571C296.933 541.408 296.909 541.232 296.909 541.041ZM297.359 540.991V541.041C297.359 541.172 297.372 541.295 297.398 541.409C297.425 541.524 297.467 541.625 297.524 541.712C297.58 541.799 297.652 541.867 297.739 541.917C297.826 541.966 297.93 541.99 298.051 541.99C298.2 541.99 298.321 541.959 298.417 541.896C298.513 541.833 298.591 541.75 298.649 541.646C298.707 541.543 298.752 541.431 298.784 541.31V540.727C298.765 540.638 298.737 540.553 298.7 540.47C298.664 540.386 298.617 540.312 298.559 540.248C298.503 540.182 298.433 540.129 298.349 540.09C298.267 540.052 298.169 540.032 298.056 540.032C297.933 540.032 297.828 540.058 297.739 540.11C297.652 540.16 297.58 540.229 297.524 540.318C297.467 540.405 297.425 540.507 297.398 540.623C297.372 540.737 297.359 540.86 297.359 540.991Z" fill="#F8F4E3"/>
<rect y="500" width="320" height="68" fill="#646464" fill-opacity="0.5"/>
<g filter="url(#filter18_dd_31_658)">
<path d="M320 0V521.5L115 510L0 537.5V530.275V0H320Z" fill="#303031"/>
<path d="M320 0V521.5L115 510L0 537.5V530.275V0H320Z" fill="url(#paint0_linear_31_658)" fill-opacity="0.3"/>
</g>
</g>
<defs>
<filter id="filter0_d_31_658" x="44.4005" y="539.516" width="10.7794" height="2.32031" filterUnits="userSpaceOnUse" color-interpolation-filters="sRGB">
<feFlood flood-opacity="0" result="BackgroundImageFix"/>
<feColorMatrix in="SourceAlpha" type="matrix" values="0 0 0 0 0 0 0 0 0 0 0 0 0 0 0 0 0 0 127 0" result="hardAlpha"/>
<feOffset dy="0.123901"/>
<feGaussianBlur stdDeviation="0.123901"/>
<feComposite in2="hardAlpha" operator="out"/>
<feColorMatrix type="matrix" values="0 0 0 0 0.972549 0 0 0 0 0.956863 0 0 0 0 0.890196 0 0 0 1 0"/>
<feBlend mode="normal" in2="BackgroundImageFix" result="effect1_dropShadow_31_658"/>
<feBlend mode="normal" in="SourceGraphic" in2="effect1_dropShadow_31_658" result="shape"/>
</filter>
<filter id="filter1_d_31_658" x="4.25659" y="532.622" width="41.1351" height="16.355" filterUnits="userSpaceOnUse" color-interpolation-filters="sRGB">
<feFlood flood-opacity="0" result="BackgroundImageFix"/>
<feColorMatrix in="SourceAlpha" type="matrix" values="0 0 0 0 0 0 0 0 0 0 0 0 0 0 0 0 0 0 127 0" result="hardAlpha"/>
<feOffset dy="0.495604"/>
<feGaussianBlur stdDeviation="0.371703"/>
<feComposite in2="hardAlpha" operator="out"/>
<feColorMatrix type="matrix" values="0 0 0 0 0.972549 0 0 0 0 0.956863 0 0 0 0 0.890196 0 0 0 1 0"/>
<feBlend mode="normal" in2="BackgroundImageFix" result="effect1_dropShadow_31_658"/>
<feBlend mode="normal" in="SourceGraphic" in2="effect1_dropShadow_31_658" result="shape"/>
</filter>
<filter id="filter2_d_31_658" x="94.4564" y="539.516" width="10.7794" height="2.32031" filterUnits="userSpaceOnUse" color-interpolation-filters="sRGB">
<feFlood flood-opacity="0" result="BackgroundImageFix"/>
<feColorMatrix in="SourceAlpha" type="matrix" values="0 0 0 0 0 0 0 0 0 0 0 0 0 0 0 0 0 0 127 0" result="hardAlpha"/>
<feOffset dy="0.123901"/>
<feGaussianBlur stdDeviation="0.123901"/>
<feComposite in2="hardAlpha" operator="out"/>
<feColorMatrix type="matrix" values="0 0 0 0 0.972549 0 0 0 0 0.956863 0 0 0 0 0.890196 0 0 0 1 0"/>
<feBlend mode="normal" in2="BackgroundImageFix" result="effect1_dropShadow_31_658"/>
<feBlend mode="normal" in="SourceGraphic" in2="effect1_dropShadow_31_658" result="shape"/>
</filter>
<filter id="filter3_d_31_658" x="54.3126" y="532.622" width="41.1351" height="16.355" filterUnits="userSpaceOnUse" color-interpolation-filters="sRGB">
<feFlood flood-opacity="0" result="BackgroundImageFix"/>
<feColorMatrix in="SourceAlpha" type="matrix" values="0 0 0 0 0 0 0 0 0 0 0 0 0 0 0 0 0 0 127 0" result="hardAlpha"/>
<feOffset dy="0.495604"/>
<feGaussianBlur stdDeviation="0.371703"/>
<feComposite in2="hardAlpha" operator="out"/>
<feColorMatrix type="matrix" values="0 0 0 0 0.972549 0 0 0 0 0.956863 0 0 0 0 0.890196 0 0 0 1 0"/>
<feBlend mode="normal" in2="BackgroundImageFix" result="effect1_dropShadow_31_658"/>
<feBlend mode="normal" in="SourceGraphic" in2="effect1_dropShadow_31_658" result="shape"/>
</filter>
<filter id="filter4_d_31_658" x="144.512" y="539.516" width="10.7794" height="2.32031" filterUnits="userSpaceOnUse" color-interpolation-filters="sRGB">
<feFlood flood-opacity="0" result="BackgroundImageFix"/>
<feColorMatrix in="SourceAlpha" type="matrix" values="0 0 0 0 0 0 0 0 0 0 0 0 0 0 0 0 0 0 127 0" result="hardAlpha"/>
<feOffset dy="0.123901"/>
<feGaussianBlur stdDeviation="0.123901"/>
<feComposite in2="hardAlpha" operator="out"/>
<feColorMatrix type="matrix" values="0 0 0 0 0.972549 0 0 0 0 0.956863 0 0 0 0 0.890196 0 0 0 1 0"/>
<feBlend mode="normal" in2="BackgroundImageFix" result="effect1_dropShadow_31_658"/>
<feBlend mode="normal" in="SourceGraphic" in2="effect1_dropShadow_31_658" result="shape"/>
</filter>
<filter id="filter5_d_31_658" x="104.369" y="532.622" width="41.1351" height="16.355" filterUnits="userSpaceOnUse" color-interpolation-filters="sRGB">
<feFlood flood-opacity="0" result="BackgroundImageFix"/>
<feColorMatrix in="SourceAlpha" type="matrix" values="0 0 0 0 0 0 0 0 0 0 0 0 0 0 0 0 0 0 127 0" result="hardAlpha"/>
<feOffset dy="0.495604"/>
<feGaussianBlur stdDeviation="0.371703"/>
<feComposite in2="hardAlpha" operator="out"/>
<feColorMatrix type="matrix" values="0 0 0 0 0.972549 0 0 0 0 0.956863 0 0 0 0 0.890196 0 0 0 1 0"/>
<feBlend mode="normal" in2="BackgroundImageFix" result="effect1_dropShadow_31_658"/>
<feBlend mode="normal" in="SourceGraphic" in2="effect1_dropShadow_31_658" result="shape"/>
</filter>
<filter id="filter6_d_31_658" x="244.624" y="525.188" width="20.3198" height="0.743406" filterUnits="userSpaceOnUse" color-interpolation-filters="sRGB">
<feFlood flood-opacity="0" result="BackgroundImageFix"/>
<feColorMatrix in="SourceAlpha" type="matrix" values="0 0 0 0 0 0 0 0 0 0 0 0 0 0 0 0 0 0 127 0" result="hardAlpha"/>
<feOffset dy="0.123901"/>
<feGaussianBlur stdDeviation="0.123901"/>
<feComposite in2="hardAlpha" operator="out"/>
<feColorMatrix type="matrix" values="0 0 0 0 0.972549 0 0 0 0 0.956863 0 0 0 0 0.890196 0 0 0 1 0"/>
<feBlend mode="normal" in2="BackgroundImageFix" result="effect1_dropShadow_31_658"/>
<feBlend mode="normal" in="SourceGraphic" in2="effect1_dropShadow_31_658" result="shape"/>
</filter>
<filter id="filter7_d_31_658" x="244.624" y="554.181" width="20.3198" height="0.743406" filterUnits="userSpaceOnUse" color-interpolation-filters="sRGB">
<feFlood flood-opacity="0" result="BackgroundImageFix"/>
<feColorMatrix in="SourceAlpha" type="matrix" values="0 0 0 0 0 0 0 0 0 0 0 0 0 0 0 0 0 0 127 0" result="hardAlpha"/>
<feOffset dy="0.123901"/>
<feGaussianBlur stdDeviation="0.123901"/>
<feComposite in2="hardAlpha" operator="out"/>
<feColorMatrix type="matrix" values="0 0 0 0 0.972549 0 0 0 0 0.956863 0 0 0 0 0.890196 0 0 0 1 0"/>
<feBlend mode="normal" in2="BackgroundImageFix" result="effect1_dropShadow_31_658"/>
<feBlend mode="normal" in="SourceGraphic" in2="effect1_dropShadow_31_658" result="shape"/>
</filter>
<filter id="filter8_d_31_658" x="204.728" y="546.747" width="41.1351" height="16.355" filterUnits="userSpaceOnUse" color-interpolation-filters="sRGB">
<feFlood flood-opacity="0" result="BackgroundImageFix"/>
<feColorMatrix in="SourceAlpha" type="matrix" values="0 0 0 0 0 0 0 0 0 0 0 0 0 0 0 0 0 0 127 0" result="hardAlpha"/>
<feOffset dy="0.495604"/>
<feGaussianBlur stdDeviation="0.371703"/>
<feComposite in2="hardAlpha" operator="out"/>
<feColorMatrix type="matrix" values="0 0 0 0 0.972549 0 0 0 0 0.956863 0 0 0 0 0.890196 0 0 0 1 0"/>
<feBlend mode="normal" in2="BackgroundImageFix" result="effect1_dropShadow_31_658"/>
<feBlend mode="normal" in="SourceGraphic" in2="effect1_dropShadow_31_658" result="shape"/>
</filter>
<filter id="filter9_d_31_658" x="204.728" y="517.754" width="41.1351" height="16.355" filterUnits="userSpaceOnUse" color-interpolation-filters="sRGB">
<feFlood flood-opacity="0" result="BackgroundImageFix"/>
<feColorMatrix in="SourceAlpha" type="matrix" values="0 0 0 0 0 0 0 0 0 0 0 0 0 0 0 0 0 0 127 0" result="hardAlpha"/>
<feOffset dy="0.495604"/>
<feGaussianBlur stdDeviation="0.371703"/>
<feComposite in2="hardAlpha" operator="out"/>
<feColorMatrix type="matrix" values="0 0 0 0 0.972549 0 0 0 0 0.956863 0 0 0 0 0.890196 0 0 0 1 0"/>
<feBlend mode="normal" in2="BackgroundImageFix" result="effect1_dropShadow_31_658"/>
<feBlend mode="normal" in="SourceGraphic" in2="effect1_dropShadow_31_658" result="shape"/>
</filter>
<filter id="filter10_d_31_658" x="169.664" y="525.312" width="0.743406" height="5.94726" filterUnits="userSpaceOnUse" color-interpolation-filters="sRGB">
<feFlood flood-opacity="0" result="BackgroundImageFix"/>
<feColorMatrix in="SourceAlpha" type="matrix" values="0 0 0 0 0 0 0 0 0 0 0 0 0 0 0 0 0 0 127 0" result="hardAlpha"/>
<feOffset dy="0.123901"/>
<feGaussianBlur stdDeviation="0.123901"/>
<feComposite in2="hardAlpha" operator="out"/>
<feColorMatrix type="matrix" values="0 0 0 0 0.972549 0 0 0 0 0.956863 0 0 0 0 0.890196 0 0 0 1 0"/>
<feBlend mode="normal" in2="BackgroundImageFix" result="effect1_dropShadow_31_658"/>
<feBlend mode="normal" in="SourceGraphic" in2="effect1_dropShadow_31_658" result="shape"/>
</filter>
<filter id="filter11_d_31_658" x="169.664" y="524.4" width="35.9313" height="2.32031" filterUnits="userSpaceOnUse" color-interpolation-filters="sRGB">
<feFlood flood-opacity="0" result="BackgroundImageFix"/>
<feColorMatrix in="SourceAlpha" type="matrix" values="0 0 0 0 0 0 0 0 0 0 0 0 0 0 0 0 0 0 127 0" result="hardAlpha"/>
<feOffset dy="0.123901"/>
<feGaussianBlur stdDeviation="0.123901"/>
<feComposite in2="hardAlpha" operator="out"/>
<feColorMatrix type="matrix" values="0 0 0 0 0.972549 0 0 0 0 0.956863 0 0 0 0 0.890196 0 0 0 1 0"/>
<feBlend mode="normal" in2="BackgroundImageFix" result="effect1_dropShadow_31_658"/>
<feBlend mode="normal" in="SourceGraphic" in2="effect1_dropShadow_31_658" result="shape"/>
</filter>
<filter id="filter12_d_31_658" x="169.664" y="550.092" width="0.743406" height="4.70825" filterUnits="userSpaceOnUse" color-interpolation-filters="sRGB">
<feFlood flood-opacity="0" result="BackgroundImageFix"/>
<feColorMatrix in="SourceAlpha" type="matrix" values="0 0 0 0 0 0 0 0 0 0 0 0 0 0 0 0 0 0 127 0" result="hardAlpha"/>
<feOffset dy="0.123901"/>
<feGaussianBlur stdDeviation="0.123901"/>
<feComposite in2="hardAlpha" operator="out"/>
<feColorMatrix type="matrix" values="0 0 0 0 0.972549 0 0 0 0 0.956863 0 0 0 0 0.890196 0 0 0 1 0"/>
<feBlend mode="normal" in2="BackgroundImageFix" result="effect1_dropShadow_31_658"/>
<feBlend mode="normal" in="SourceGraphic" in2="effect1_dropShadow_31_658" result="shape"/>
</filter>
<filter id="filter13_d_31_658" x="169.772" y="553.268" width="35.8239" height="2.32031" filterUnits="userSpaceOnUse" color-interpolation-filters="sRGB">
<feFlood flood-opacity="0" result="BackgroundImageFix"/>
<feColorMatrix in="SourceAlpha" type="matrix" values="0 0 0 0 0 0 0 0 0 0 0 0 0 0 0 0 0 0 127 0" result="hardAlpha"/>
<feOffset dy="0.123901"/>
<feGaussianBlur stdDeviation="0.123901"/>
<feComposite in2="hardAlpha" operator="out"/>
<feColorMatrix type="matrix" values="0 0 0 0 0.972549 0 0 0 0 0.956863 0 0 0 0 0.890196 0 0 0 1 0"/>
<feBlend mode="normal" in2="BackgroundImageFix" result="effect1_dropShadow_31_658"/>
<feBlend mode="normal" in="SourceGraphic" in2="effect1_dropShadow_31_658" result="shape"/>
</filter>
<filter id="filter14_d_31_658" x="154.424" y="530.392" width="31.223" height="21.311" filterUnits="userSpaceOnUse" color-interpolation-filters="sRGB">
<feFlood flood-opacity="0" result="BackgroundImageFix"/>
<feColorMatrix in="SourceAlpha" type="matrix" values="0 0 0 0 0 0 0 0 0 0 0 0 0 0 0 0 0 0 127 0" result="hardAlpha"/>
<feOffset dy="0.495604"/>
<feGaussianBlur stdDeviation="0.371703"/>
<feComposite in2="hardAlpha" operator="out"/>
<feColorMatrix type="matrix" values="0 0 0 0 0.972549 0 0 0 0 0.956863 0 0 0 0 0.890196 0 0 0 1 0"/>
<feBlend mode="normal" in2="BackgroundImageFix" result="effect1_dropShadow_31_658"/>
<feBlend mode="normal" in="SourceGraphic" in2="effect1_dropShadow_31_658" result="shape"/>
</filter>
<filter id="filter15_d_31_658" x="263.664" y="524.651" width="1.81726" height="30.8101" filterUnits="userSpaceOnUse" color-interpolation-filters="sRGB">
<feFlood flood-opacity="0" result="BackgroundImageFix"/>
<feColorMatrix in="SourceAlpha" type="matrix" values="0 0 0 0 0 0 0 0 0 0 0 0 0 0 0 0 0 0 127 0" result="hardAlpha"/>
<feOffset dy="0.123901"/>
<feGaussianBlur stdDeviation="0.123901"/>
<feComposite in2="hardAlpha" operator="out"/>
<feColorMatrix type="matrix" values="0 0 0 0 0.972549 0 0 0 0 0.956863 0 0 0 0 0.890196 0 0 0 1 0"/>
<feBlend mode="normal" in2="BackgroundImageFix" result="effect1_dropShadow_31_658"/>
<feBlend mode="normal" in="SourceGraphic" in2="effect1_dropShadow_31_658" result="shape"/>
</filter>
<filter id="filter16_d_31_658" x="264.448" y="539.02" width="11.0272" height="2.32031" filterUnits="userSpaceOnUse" color-interpolation-filters="sRGB">
<feFlood flood-opacity="0" result="BackgroundImageFix"/>
<feColorMatrix in="SourceAlpha" type="matrix" values="0 0 0 0 0 0 0 0 0 0 0 0 0 0 0 0 0 0 127 0" result="hardAlpha"/>
<feOffset dy="0.123901"/>
<feGaussianBlur stdDeviation="0.123901"/>
<feComposite in2="hardAlpha" operator="out"/>
<feColorMatrix type="matrix" values="0 0 0 0 0.972549 0 0 0 0 0.956863 0 0 0 0 0.890196 0 0 0 1 0"/>
<feBlend mode="normal" in2="BackgroundImageFix" result="effect1_dropShadow_31_658"/>
<feBlend mode="normal" in="SourceGraphic" in2="effect1_dropShadow_31_658" result="shape"/>
</filter>
<filter id="filter17_d_31_658" x="274.608" y="532.622" width="41.1351" height="16.355" filterUnits="userSpaceOnUse" color-interpolation-filters="sRGB">
<feFlood flood-opacity="0" result="BackgroundImageFix"/>
<feColorMatrix in="SourceAlpha" type="matrix" values="0 0 0 0 0 0 0 0 0 0 0 0 0 0 0 0 0 0 127 0" result="hardAlpha"/>
<feOffset dy="0.495604"/>
<feGaussianBlur stdDeviation="0.371703"/>
<feComposite in2="hardAlpha" operator="out"/>
<feColorMatrix type="matrix" values="0 0 0 0 0.972549 0 0 0 0 0.956863 0 0 0 0 0.890196 0 0 0 1 0"/>
<feBlend mode="normal" in2="BackgroundImageFix" result="effect1_dropShadow_31_658"/>
<feBlend mode="normal" in="SourceGraphic" in2="effect1_dropShadow_31_658" result="shape"/>
</filter>
<filter id="filter18_dd_31_658" x="-50" y="-10" width="420" height="637.5" filterUnits="userSpaceOnUse" color-interpolation-filters="sRGB">
<feFlood flood-opacity="0" result="BackgroundImageFix"/>
<feColorMatrix in="SourceAlpha" type="matrix" values="0 0 0 0 0 0 0 0 0 0 0 0 0 0 0 0 0 0 127 0" result="hardAlpha"/>
<feOffset dy="4"/>
<feGaussianBlur stdDeviation="4"/>
<feComposite in2="hardAlpha" operator="out"/>
<feColorMatrix type="matrix" values="0 0 0 0 0 0 0 0 0 0 0 0 0 0 0 0 0 0 0.25 0"/>
<feBlend mode="normal" in2="BackgroundImageFix" result="effect1_dropShadow_31_658"/>
<feColorMatrix in="SourceAlpha" type="matrix" values="0 0 0 0 0 0 0 0 0 0 0 0 0 0 0 0 0 0 127 0" result="hardAlpha"/>
<feOffset dy="40"/>
<feGaussianBlur stdDeviation="25"/>
<feComposite in2="hardAlpha" operator="out"/>
<feColorMatrix type="matrix" values="0 0 0 0 0 0 0 0 0 0 0 0 0 0 0 0 0 0 0.25 0"/>
<feBlend mode="normal" in2="effect1_dropShadow_31_658" result="effect2_dropShadow_31_658"/>
<feBlend mode="normal" in="SourceGraphic" in2="effect2_dropShadow_31_658" result="shape"/>
</filter>
<linearGradient id="paint0_linear_31_658" x1="-13.3289" y1="288.411" x2="334.715" y2="288.411" gradientUnits="userSpaceOnUse">
<stop/>
<stop offset="1" stop-opacity="0.6"/>
</linearGradient>
<clipPath id="clip0_31_658">
<rect width="320" height="568" fill="white"/>
</clipPath>
</defs>
</svg>
