<svg width="1440" height="1024" viewBox="0 0 1440 1024" fill="none" xmlns="http://www.w3.org/2000/svg">
<g clip-path="url(#clip0_31_208)">
<rect width="1440" height="1024" fill="#646464"/>
<g filter="url(#filter0_d_31_208)">
<path d="M296.354 954.354C296.549 954.158 296.549 953.842 296.354 953.646L293.172 950.464C292.976 950.269 292.66 950.269 292.464 950.464C292.269 950.66 292.269 950.976 292.464 951.172L295.293 954L292.464 956.828C292.269 957.024 292.269 957.34 292.464 957.536C292.66 957.731 292.976 957.731 293.172 957.536L296.354 954.354ZM255 954.5H296V953.5H255V954.5Z" fill="white"/>
</g>
<g filter="url(#filter1_d_31_208)">
<rect x="95.5" y="923.5" width="159" height="59" rx="29.5" stroke="#02CC9E" shape-rendering="crispEdges"/>
</g>
<path d="M163.176 956.406C163.176 956.074 163.124 955.781 163.02 955.527C162.922 955.267 162.746 955.033 162.492 954.824C162.245 954.616 161.9 954.417 161.457 954.229C161.021 954.04 160.467 953.848 159.797 953.652C159.094 953.444 158.459 953.213 157.893 952.959C157.326 952.699 156.841 952.402 156.438 952.07C156.034 951.738 155.725 951.357 155.51 950.928C155.295 950.498 155.188 950.007 155.188 949.453C155.188 948.9 155.301 948.389 155.529 947.92C155.757 947.451 156.083 947.044 156.506 946.699C156.936 946.348 157.447 946.074 158.039 945.879C158.632 945.684 159.292 945.586 160.021 945.586C161.089 945.586 161.994 945.791 162.736 946.201C163.485 946.605 164.055 947.135 164.445 947.793C164.836 948.444 165.031 949.141 165.031 949.883H163.156C163.156 949.349 163.042 948.877 162.814 948.467C162.587 948.05 162.242 947.725 161.779 947.49C161.317 947.249 160.731 947.129 160.021 947.129C159.351 947.129 158.798 947.23 158.361 947.432C157.925 947.633 157.6 947.907 157.385 948.252C157.176 948.597 157.072 948.991 157.072 949.434C157.072 949.733 157.134 950.007 157.258 950.254C157.388 950.495 157.587 950.719 157.854 950.928C158.127 951.136 158.472 951.328 158.889 951.504C159.312 951.68 159.816 951.849 160.402 952.012C161.21 952.24 161.906 952.493 162.492 952.773C163.078 953.053 163.56 953.369 163.938 953.721C164.322 954.066 164.605 954.46 164.787 954.902C164.976 955.339 165.07 955.833 165.07 956.387C165.07 956.966 164.953 957.49 164.719 957.959C164.484 958.428 164.149 958.828 163.713 959.16C163.277 959.492 162.753 959.749 162.141 959.932C161.535 960.107 160.858 960.195 160.109 960.195C159.452 960.195 158.804 960.104 158.166 959.922C157.535 959.74 156.958 959.466 156.438 959.102C155.923 958.737 155.51 958.288 155.197 957.754C154.891 957.214 154.738 956.589 154.738 955.879H156.613C156.613 956.367 156.708 956.787 156.896 957.139C157.085 957.484 157.342 957.77 157.668 957.998C158 958.226 158.374 958.395 158.791 958.506C159.214 958.61 159.654 958.662 160.109 958.662C160.767 958.662 161.324 958.571 161.779 958.389C162.235 958.206 162.58 957.946 162.814 957.607C163.055 957.269 163.176 956.868 163.176 956.406ZM171.623 949.434V950.82H165.91V949.434H171.623ZM167.844 946.865H169.65V957.383C169.65 957.741 169.706 958.011 169.816 958.193C169.927 958.376 170.07 958.496 170.246 958.555C170.422 958.613 170.611 958.643 170.812 958.643C170.962 958.643 171.118 958.63 171.281 958.604C171.451 958.571 171.577 958.545 171.662 958.525L171.672 960C171.529 960.046 171.34 960.088 171.105 960.127C170.878 960.173 170.601 960.195 170.275 960.195C169.833 960.195 169.426 960.107 169.055 959.932C168.684 959.756 168.387 959.463 168.166 959.053C167.951 958.636 167.844 958.076 167.844 957.373V946.865ZM179.973 958.193V952.754C179.973 952.337 179.888 951.976 179.719 951.67C179.556 951.357 179.309 951.117 178.977 950.947C178.645 950.778 178.234 950.693 177.746 950.693C177.29 950.693 176.89 950.771 176.545 950.928C176.206 951.084 175.939 951.289 175.744 951.543C175.555 951.797 175.461 952.07 175.461 952.363H173.654C173.654 951.986 173.752 951.611 173.947 951.24C174.143 950.869 174.423 950.534 174.787 950.234C175.158 949.928 175.601 949.688 176.115 949.512C176.636 949.329 177.215 949.238 177.854 949.238C178.622 949.238 179.299 949.368 179.885 949.629C180.477 949.889 180.939 950.283 181.271 950.811C181.61 951.331 181.779 951.986 181.779 952.773V957.695C181.779 958.047 181.809 958.421 181.867 958.818C181.932 959.215 182.027 959.557 182.15 959.844V960H180.266C180.174 959.792 180.103 959.515 180.051 959.17C179.999 958.818 179.973 958.493 179.973 958.193ZM180.285 953.594L180.305 954.863H178.479C177.964 954.863 177.505 954.906 177.102 954.99C176.698 955.068 176.359 955.189 176.086 955.352C175.812 955.514 175.604 955.719 175.461 955.967C175.318 956.208 175.246 956.491 175.246 956.816C175.246 957.148 175.321 957.451 175.471 957.725C175.62 957.998 175.845 958.216 176.145 958.379C176.451 958.535 176.825 958.613 177.268 958.613C177.821 958.613 178.309 958.496 178.732 958.262C179.156 958.027 179.491 957.741 179.738 957.402C179.992 957.064 180.129 956.735 180.148 956.416L180.92 957.285C180.874 957.559 180.751 957.861 180.549 958.193C180.347 958.525 180.077 958.844 179.738 959.15C179.406 959.45 179.009 959.701 178.547 959.902C178.091 960.098 177.577 960.195 177.004 960.195C176.288 960.195 175.66 960.055 175.119 959.775C174.585 959.495 174.169 959.121 173.869 958.652C173.576 958.177 173.43 957.646 173.43 957.061C173.43 956.494 173.54 955.996 173.762 955.566C173.983 955.13 174.302 954.769 174.719 954.482C175.135 954.189 175.637 953.968 176.223 953.818C176.809 953.669 177.463 953.594 178.186 953.594H180.285ZM186.428 951.094V960H184.621V949.434H186.379L186.428 951.094ZM189.729 949.375L189.719 951.055C189.569 951.022 189.426 951.003 189.289 950.996C189.159 950.983 189.009 950.977 188.84 950.977C188.423 950.977 188.055 951.042 187.736 951.172C187.417 951.302 187.147 951.484 186.926 951.719C186.704 951.953 186.529 952.233 186.398 952.559C186.275 952.878 186.193 953.229 186.154 953.613L185.646 953.906C185.646 953.268 185.708 952.669 185.832 952.109C185.962 951.549 186.161 951.055 186.428 950.625C186.695 950.189 187.033 949.85 187.443 949.609C187.86 949.362 188.355 949.238 188.928 949.238C189.058 949.238 189.208 949.255 189.377 949.287C189.546 949.313 189.663 949.342 189.729 949.375ZM196.311 949.434V950.82H190.598V949.434H196.311ZM192.531 946.865H194.338V957.383C194.338 957.741 194.393 958.011 194.504 958.193C194.615 958.376 194.758 958.496 194.934 958.555C195.109 958.613 195.298 958.643 195.5 958.643C195.65 958.643 195.806 958.63 195.969 958.604C196.138 958.571 196.265 958.545 196.35 958.525L196.359 960C196.216 960.046 196.027 960.088 195.793 960.127C195.565 960.173 195.288 960.195 194.963 960.195C194.52 960.195 194.113 960.107 193.742 959.932C193.371 959.756 193.075 959.463 192.854 959.053C192.639 958.636 192.531 958.076 192.531 957.373V946.865Z" fill="#F8F4E3"/>
<g filter="url(#filter2_d_31_208)">
<path d="M498.354 954.354C498.549 954.158 498.549 953.842 498.354 953.646L495.172 950.464C494.976 950.269 494.66 950.269 494.464 950.464C494.269 950.66 494.269 950.976 494.464 951.172L497.293 954L494.464 956.828C494.269 957.024 494.269 957.34 494.464 957.536C494.66 957.731 494.976 957.731 495.172 957.536L498.354 954.354ZM457 954.5H498V953.5H457V954.5Z" fill="white"/>
</g>
<g filter="url(#filter3_d_31_208)">
<rect x="297.5" y="923.5" width="159" height="59" rx="3.5" stroke="#F27654" shape-rendering="crispEdges"/>
</g>
<path d="M340.645 945.193V939.754C340.645 939.337 340.56 938.976 340.391 938.67C340.228 938.357 339.98 938.117 339.648 937.947C339.316 937.778 338.906 937.693 338.418 937.693C337.962 937.693 337.562 937.771 337.217 937.928C336.878 938.084 336.611 938.289 336.416 938.543C336.227 938.797 336.133 939.07 336.133 939.363H334.326C334.326 938.986 334.424 938.611 334.619 938.24C334.814 937.869 335.094 937.534 335.459 937.234C335.83 936.928 336.273 936.688 336.787 936.512C337.308 936.329 337.887 936.238 338.525 936.238C339.294 936.238 339.971 936.368 340.557 936.629C341.149 936.889 341.611 937.283 341.943 937.811C342.282 938.331 342.451 938.986 342.451 939.773V944.695C342.451 945.047 342.48 945.421 342.539 945.818C342.604 946.215 342.699 946.557 342.822 946.844V947H340.938C340.846 946.792 340.775 946.515 340.723 946.17C340.671 945.818 340.645 945.493 340.645 945.193ZM340.957 940.594L340.977 941.863H339.15C338.636 941.863 338.177 941.906 337.773 941.99C337.37 942.068 337.031 942.189 336.758 942.352C336.484 942.514 336.276 942.719 336.133 942.967C335.99 943.208 335.918 943.491 335.918 943.816C335.918 944.148 335.993 944.451 336.143 944.725C336.292 944.998 336.517 945.216 336.816 945.379C337.122 945.535 337.497 945.613 337.939 945.613C338.493 945.613 338.981 945.496 339.404 945.262C339.827 945.027 340.163 944.741 340.41 944.402C340.664 944.064 340.801 943.735 340.82 943.416L341.592 944.285C341.546 944.559 341.423 944.861 341.221 945.193C341.019 945.525 340.749 945.844 340.41 946.15C340.078 946.45 339.681 946.701 339.219 946.902C338.763 947.098 338.249 947.195 337.676 947.195C336.96 947.195 336.331 947.055 335.791 946.775C335.257 946.495 334.84 946.121 334.541 945.652C334.248 945.177 334.102 944.646 334.102 944.061C334.102 943.494 334.212 942.996 334.434 942.566C334.655 942.13 334.974 941.769 335.391 941.482C335.807 941.189 336.309 940.968 336.895 940.818C337.48 940.669 338.135 940.594 338.857 940.594H340.957ZM345.215 946.043C345.215 945.737 345.309 945.48 345.498 945.271C345.693 945.057 345.973 944.949 346.338 944.949C346.702 944.949 346.979 945.057 347.168 945.271C347.363 945.48 347.461 945.737 347.461 946.043C347.461 946.342 347.363 946.596 347.168 946.805C346.979 947.013 346.702 947.117 346.338 947.117C345.973 947.117 345.693 947.013 345.498 946.805C345.309 946.596 345.215 946.342 345.215 946.043ZM345.225 937.42C345.225 937.114 345.319 936.857 345.508 936.648C345.703 936.434 345.983 936.326 346.348 936.326C346.712 936.326 346.989 936.434 347.178 936.648C347.373 936.857 347.471 937.114 347.471 937.42C347.471 937.719 347.373 937.973 347.178 938.182C346.989 938.39 346.712 938.494 346.348 938.494C345.983 938.494 345.703 938.39 345.508 938.182C345.319 937.973 345.225 937.719 345.225 937.42ZM356.904 938.689V947H355.098V936.434H356.807L356.904 938.689ZM356.475 941.316L355.723 941.287C355.729 940.564 355.837 939.897 356.045 939.285C356.253 938.667 356.546 938.13 356.924 937.674C357.301 937.218 357.751 936.867 358.271 936.619C358.799 936.365 359.382 936.238 360.02 936.238C360.54 936.238 361.009 936.31 361.426 936.453C361.842 936.59 362.197 936.811 362.49 937.117C362.79 937.423 363.018 937.82 363.174 938.309C363.33 938.79 363.408 939.38 363.408 940.076V947H361.592V940.057C361.592 939.503 361.51 939.061 361.348 938.729C361.185 938.39 360.947 938.146 360.635 937.996C360.322 937.84 359.938 937.762 359.482 937.762C359.033 937.762 358.623 937.856 358.252 938.045C357.887 938.234 357.572 938.494 357.305 938.826C357.044 939.158 356.839 939.539 356.689 939.969C356.546 940.392 356.475 940.841 356.475 941.316ZM372.617 944.559V936.434H374.434V947H372.705L372.617 944.559ZM372.959 942.332L373.711 942.312C373.711 943.016 373.636 943.667 373.486 944.266C373.343 944.858 373.109 945.372 372.783 945.809C372.458 946.245 372.031 946.587 371.504 946.834C370.977 947.075 370.335 947.195 369.58 947.195C369.066 947.195 368.594 947.12 368.164 946.971C367.741 946.821 367.376 946.59 367.07 946.277C366.764 945.965 366.527 945.558 366.357 945.057C366.195 944.555 366.113 943.953 366.113 943.25V936.434H367.92V943.27C367.92 943.745 367.972 944.139 368.076 944.451C368.187 944.757 368.333 945.001 368.516 945.184C368.704 945.359 368.913 945.483 369.141 945.555C369.375 945.626 369.616 945.662 369.863 945.662C370.632 945.662 371.24 945.516 371.689 945.223C372.139 944.923 372.461 944.523 372.656 944.021C372.858 943.514 372.959 942.951 372.959 942.332ZM378.984 938.533V947H377.168V936.434H378.887L378.984 938.533ZM378.613 941.316L377.773 941.287C377.78 940.564 377.874 939.897 378.057 939.285C378.239 938.667 378.509 938.13 378.867 937.674C379.225 937.218 379.671 936.867 380.205 936.619C380.739 936.365 381.357 936.238 382.061 936.238C382.555 936.238 383.011 936.31 383.428 936.453C383.844 936.59 384.206 936.808 384.512 937.107C384.818 937.407 385.055 937.791 385.225 938.26C385.394 938.729 385.479 939.295 385.479 939.959V947H383.672V940.047C383.672 939.493 383.577 939.051 383.389 938.719C383.206 938.387 382.946 938.146 382.607 937.996C382.269 937.84 381.872 937.762 381.416 937.762C380.882 937.762 380.436 937.856 380.078 938.045C379.72 938.234 379.434 938.494 379.219 938.826C379.004 939.158 378.848 939.539 378.75 939.969C378.659 940.392 378.613 940.841 378.613 941.316ZM385.459 940.32L384.248 940.691C384.255 940.112 384.349 939.555 384.531 939.021C384.72 938.488 384.99 938.012 385.342 937.596C385.7 937.179 386.139 936.85 386.66 936.609C387.181 936.362 387.777 936.238 388.447 936.238C389.014 936.238 389.515 936.313 389.951 936.463C390.394 936.613 390.765 936.844 391.064 937.156C391.37 937.462 391.602 937.856 391.758 938.338C391.914 938.82 391.992 939.393 391.992 940.057V947H390.176V940.037C390.176 939.445 390.081 938.986 389.893 938.66C389.71 938.328 389.45 938.097 389.111 937.967C388.779 937.83 388.382 937.762 387.92 937.762C387.523 937.762 387.171 937.83 386.865 937.967C386.559 938.104 386.302 938.292 386.094 938.533C385.885 938.768 385.726 939.038 385.615 939.344C385.511 939.65 385.459 939.975 385.459 940.32ZM394.717 932H396.533V944.949L396.377 947H394.717V932ZM403.672 941.629V941.834C403.672 942.602 403.581 943.315 403.398 943.973C403.216 944.624 402.949 945.19 402.598 945.672C402.246 946.154 401.816 946.528 401.309 946.795C400.801 947.062 400.218 947.195 399.561 947.195C398.89 947.195 398.301 947.081 397.793 946.854C397.292 946.619 396.868 946.284 396.523 945.848C396.178 945.411 395.902 944.884 395.693 944.266C395.492 943.647 395.352 942.951 395.273 942.176V941.277C395.352 940.496 395.492 939.796 395.693 939.178C395.902 938.559 396.178 938.032 396.523 937.596C396.868 937.153 397.292 936.818 397.793 936.59C398.294 936.355 398.877 936.238 399.541 936.238C400.205 936.238 400.794 936.368 401.309 936.629C401.823 936.883 402.253 937.247 402.598 937.723C402.949 938.198 403.216 938.768 403.398 939.432C403.581 940.089 403.672 940.822 403.672 941.629ZM401.855 941.834V941.629C401.855 941.102 401.807 940.607 401.709 940.145C401.611 939.676 401.455 939.266 401.24 938.914C401.025 938.556 400.742 938.276 400.391 938.074C400.039 937.866 399.606 937.762 399.092 937.762C398.636 937.762 398.239 937.84 397.9 937.996C397.568 938.152 397.285 938.364 397.051 938.631C396.816 938.891 396.624 939.191 396.475 939.529C396.331 939.861 396.224 940.206 396.152 940.564V942.918C396.257 943.374 396.426 943.813 396.66 944.236C396.901 944.653 397.22 944.995 397.617 945.262C398.021 945.529 398.519 945.662 399.111 945.662C399.6 945.662 400.016 945.564 400.361 945.369C400.713 945.167 400.996 944.891 401.211 944.539C401.432 944.188 401.595 943.781 401.699 943.318C401.803 942.856 401.855 942.361 401.855 941.834ZM410.342 947.195C409.606 947.195 408.939 947.072 408.34 946.824C407.747 946.57 407.236 946.215 406.807 945.76C406.383 945.304 406.058 944.764 405.83 944.139C405.602 943.514 405.488 942.83 405.488 942.088V941.678C405.488 940.818 405.615 940.053 405.869 939.383C406.123 938.706 406.468 938.133 406.904 937.664C407.34 937.195 407.835 936.84 408.389 936.6C408.942 936.359 409.515 936.238 410.107 936.238C410.863 936.238 411.514 936.368 412.061 936.629C412.614 936.889 413.066 937.254 413.418 937.723C413.77 938.185 414.03 938.732 414.199 939.363C414.368 939.988 414.453 940.672 414.453 941.414V942.225H406.562V940.75H412.646V940.613C412.62 940.145 412.523 939.689 412.354 939.246C412.191 938.803 411.93 938.439 411.572 938.152C411.214 937.866 410.726 937.723 410.107 937.723C409.697 937.723 409.32 937.811 408.975 937.986C408.63 938.156 408.333 938.41 408.086 938.748C407.839 939.087 407.646 939.5 407.51 939.988C407.373 940.477 407.305 941.04 407.305 941.678V942.088C407.305 942.589 407.373 943.061 407.51 943.504C407.653 943.94 407.858 944.324 408.125 944.656C408.398 944.988 408.727 945.249 409.111 945.438C409.502 945.626 409.945 945.721 410.439 945.721C411.077 945.721 411.618 945.59 412.061 945.33C412.503 945.07 412.891 944.721 413.223 944.285L414.316 945.154C414.089 945.499 413.799 945.828 413.447 946.141C413.096 946.453 412.663 946.707 412.148 946.902C411.641 947.098 411.038 947.195 410.342 947.195ZM418.369 938.094V947H416.562V936.434H418.32L418.369 938.094ZM421.67 936.375L421.66 938.055C421.51 938.022 421.367 938.003 421.23 937.996C421.1 937.983 420.951 937.977 420.781 937.977C420.365 937.977 419.997 938.042 419.678 938.172C419.359 938.302 419.089 938.484 418.867 938.719C418.646 938.953 418.47 939.233 418.34 939.559C418.216 939.878 418.135 940.229 418.096 940.613L417.588 940.906C417.588 940.268 417.65 939.669 417.773 939.109C417.904 938.549 418.102 938.055 418.369 937.625C418.636 937.189 418.975 936.85 419.385 936.609C419.801 936.362 420.296 936.238 420.869 936.238C420.999 936.238 421.149 936.255 421.318 936.287C421.488 936.313 421.605 936.342 421.67 936.375ZM334.229 955H336.045V967.949L335.889 970H334.229V955ZM343.184 964.629V964.834C343.184 965.602 343.092 966.315 342.91 966.973C342.728 967.624 342.461 968.19 342.109 968.672C341.758 969.154 341.328 969.528 340.82 969.795C340.312 970.062 339.73 970.195 339.072 970.195C338.402 970.195 337.812 970.081 337.305 969.854C336.803 969.619 336.38 969.284 336.035 968.848C335.69 968.411 335.413 967.884 335.205 967.266C335.003 966.647 334.863 965.951 334.785 965.176V964.277C334.863 963.496 335.003 962.796 335.205 962.178C335.413 961.559 335.69 961.032 336.035 960.596C336.38 960.153 336.803 959.818 337.305 959.59C337.806 959.355 338.389 959.238 339.053 959.238C339.717 959.238 340.306 959.368 340.82 959.629C341.335 959.883 341.764 960.247 342.109 960.723C342.461 961.198 342.728 961.768 342.91 962.432C343.092 963.089 343.184 963.822 343.184 964.629ZM341.367 964.834V964.629C341.367 964.102 341.318 963.607 341.221 963.145C341.123 962.676 340.967 962.266 340.752 961.914C340.537 961.556 340.254 961.276 339.902 961.074C339.551 960.866 339.118 960.762 338.604 960.762C338.148 960.762 337.751 960.84 337.412 960.996C337.08 961.152 336.797 961.364 336.562 961.631C336.328 961.891 336.136 962.191 335.986 962.529C335.843 962.861 335.736 963.206 335.664 963.564V965.918C335.768 966.374 335.938 966.813 336.172 967.236C336.413 967.653 336.732 967.995 337.129 968.262C337.533 968.529 338.031 968.662 338.623 968.662C339.111 968.662 339.528 968.564 339.873 968.369C340.225 968.167 340.508 967.891 340.723 967.539C340.944 967.188 341.107 966.781 341.211 966.318C341.315 965.856 341.367 965.361 341.367 964.834ZM345.391 969.043C345.391 968.737 345.485 968.48 345.674 968.271C345.869 968.057 346.149 967.949 346.514 967.949C346.878 967.949 347.155 968.057 347.344 968.271C347.539 968.48 347.637 968.737 347.637 969.043C347.637 969.342 347.539 969.596 347.344 969.805C347.155 970.013 346.878 970.117 346.514 970.117C346.149 970.117 345.869 970.013 345.674 969.805C345.485 969.596 345.391 969.342 345.391 969.043ZM345.4 960.42C345.4 960.114 345.495 959.857 345.684 959.648C345.879 959.434 346.159 959.326 346.523 959.326C346.888 959.326 347.165 959.434 347.354 959.648C347.549 959.857 347.646 960.114 347.646 960.42C347.646 960.719 347.549 960.973 347.354 961.182C347.165 961.39 346.888 961.494 346.523 961.494C346.159 961.494 345.879 961.39 345.684 961.182C345.495 960.973 345.4 960.719 345.4 960.42ZM357.08 961.689V970H355.273V959.434H356.982L357.08 961.689ZM356.65 964.316L355.898 964.287C355.905 963.564 356.012 962.897 356.221 962.285C356.429 961.667 356.722 961.13 357.1 960.674C357.477 960.218 357.926 959.867 358.447 959.619C358.975 959.365 359.557 959.238 360.195 959.238C360.716 959.238 361.185 959.31 361.602 959.453C362.018 959.59 362.373 959.811 362.666 960.117C362.965 960.423 363.193 960.82 363.35 961.309C363.506 961.79 363.584 962.38 363.584 963.076V970H361.768V963.057C361.768 962.503 361.686 962.061 361.523 961.729C361.361 961.39 361.123 961.146 360.811 960.996C360.498 960.84 360.114 960.762 359.658 960.762C359.209 960.762 358.799 960.856 358.428 961.045C358.063 961.234 357.747 961.494 357.48 961.826C357.22 962.158 357.015 962.539 356.865 962.969C356.722 963.392 356.65 963.841 356.65 964.316ZM372.793 967.559V959.434H374.609V970H372.881L372.793 967.559ZM373.135 965.332L373.887 965.312C373.887 966.016 373.812 966.667 373.662 967.266C373.519 967.858 373.285 968.372 372.959 968.809C372.633 969.245 372.207 969.587 371.68 969.834C371.152 970.075 370.511 970.195 369.756 970.195C369.242 970.195 368.77 970.12 368.34 969.971C367.917 969.821 367.552 969.59 367.246 969.277C366.94 968.965 366.702 968.558 366.533 968.057C366.37 967.555 366.289 966.953 366.289 966.25V959.434H368.096V966.27C368.096 966.745 368.148 967.139 368.252 967.451C368.363 967.757 368.509 968.001 368.691 968.184C368.88 968.359 369.089 968.483 369.316 968.555C369.551 968.626 369.792 968.662 370.039 968.662C370.807 968.662 371.416 968.516 371.865 968.223C372.314 967.923 372.637 967.523 372.832 967.021C373.034 966.514 373.135 965.951 373.135 965.332ZM379.16 961.533V970H377.344V959.434H379.062L379.16 961.533ZM378.789 964.316L377.949 964.287C377.956 963.564 378.05 962.897 378.232 962.285C378.415 961.667 378.685 961.13 379.043 960.674C379.401 960.218 379.847 959.867 380.381 959.619C380.915 959.365 381.533 959.238 382.236 959.238C382.731 959.238 383.187 959.31 383.604 959.453C384.02 959.59 384.382 959.808 384.688 960.107C384.993 960.407 385.231 960.791 385.4 961.26C385.57 961.729 385.654 962.295 385.654 962.959V970H383.848V963.047C383.848 962.493 383.753 962.051 383.564 961.719C383.382 961.387 383.122 961.146 382.783 960.996C382.445 960.84 382.048 960.762 381.592 960.762C381.058 960.762 380.612 960.856 380.254 961.045C379.896 961.234 379.609 961.494 379.395 961.826C379.18 962.158 379.023 962.539 378.926 962.969C378.835 963.392 378.789 963.841 378.789 964.316ZM385.635 963.32L384.424 963.691C384.43 963.112 384.525 962.555 384.707 962.021C384.896 961.488 385.166 961.012 385.518 960.596C385.876 960.179 386.315 959.85 386.836 959.609C387.357 959.362 387.952 959.238 388.623 959.238C389.189 959.238 389.691 959.313 390.127 959.463C390.57 959.613 390.941 959.844 391.24 960.156C391.546 960.462 391.777 960.856 391.934 961.338C392.09 961.82 392.168 962.393 392.168 963.057V970H390.352V963.037C390.352 962.445 390.257 961.986 390.068 961.66C389.886 961.328 389.626 961.097 389.287 960.967C388.955 960.83 388.558 960.762 388.096 960.762C387.699 960.762 387.347 960.83 387.041 960.967C386.735 961.104 386.478 961.292 386.27 961.533C386.061 961.768 385.902 962.038 385.791 962.344C385.687 962.65 385.635 962.975 385.635 963.32ZM394.893 955H396.709V967.949L396.553 970H394.893V955ZM403.848 964.629V964.834C403.848 965.602 403.757 966.315 403.574 966.973C403.392 967.624 403.125 968.19 402.773 968.672C402.422 969.154 401.992 969.528 401.484 969.795C400.977 970.062 400.394 970.195 399.736 970.195C399.066 970.195 398.477 970.081 397.969 969.854C397.467 969.619 397.044 969.284 396.699 968.848C396.354 968.411 396.077 967.884 395.869 967.266C395.667 966.647 395.527 965.951 395.449 965.176V964.277C395.527 963.496 395.667 962.796 395.869 962.178C396.077 961.559 396.354 961.032 396.699 960.596C397.044 960.153 397.467 959.818 397.969 959.59C398.47 959.355 399.053 959.238 399.717 959.238C400.381 959.238 400.97 959.368 401.484 959.629C401.999 959.883 402.428 960.247 402.773 960.723C403.125 961.198 403.392 961.768 403.574 962.432C403.757 963.089 403.848 963.822 403.848 964.629ZM402.031 964.834V964.629C402.031 964.102 401.982 963.607 401.885 963.145C401.787 962.676 401.631 962.266 401.416 961.914C401.201 961.556 400.918 961.276 400.566 961.074C400.215 960.866 399.782 960.762 399.268 960.762C398.812 960.762 398.415 960.84 398.076 960.996C397.744 961.152 397.461 961.364 397.227 961.631C396.992 961.891 396.8 962.191 396.65 962.529C396.507 962.861 396.4 963.206 396.328 963.564V965.918C396.432 966.374 396.602 966.813 396.836 967.236C397.077 967.653 397.396 967.995 397.793 968.262C398.197 968.529 398.695 968.662 399.287 968.662C399.775 968.662 400.192 968.564 400.537 968.369C400.889 968.167 401.172 967.891 401.387 967.539C401.608 967.188 401.771 966.781 401.875 966.318C401.979 965.856 402.031 965.361 402.031 964.834ZM410.518 970.195C409.782 970.195 409.115 970.072 408.516 969.824C407.923 969.57 407.412 969.215 406.982 968.76C406.559 968.304 406.234 967.764 406.006 967.139C405.778 966.514 405.664 965.83 405.664 965.088V964.678C405.664 963.818 405.791 963.053 406.045 962.383C406.299 961.706 406.644 961.133 407.08 960.664C407.516 960.195 408.011 959.84 408.564 959.6C409.118 959.359 409.691 959.238 410.283 959.238C411.038 959.238 411.689 959.368 412.236 959.629C412.79 959.889 413.242 960.254 413.594 960.723C413.945 961.185 414.206 961.732 414.375 962.363C414.544 962.988 414.629 963.672 414.629 964.414V965.225H406.738V963.75H412.822V963.613C412.796 963.145 412.699 962.689 412.529 962.246C412.367 961.803 412.106 961.439 411.748 961.152C411.39 960.866 410.902 960.723 410.283 960.723C409.873 960.723 409.495 960.811 409.15 960.986C408.805 961.156 408.509 961.41 408.262 961.748C408.014 962.087 407.822 962.5 407.686 962.988C407.549 963.477 407.48 964.04 407.48 964.678V965.088C407.48 965.589 407.549 966.061 407.686 966.504C407.829 966.94 408.034 967.324 408.301 967.656C408.574 967.988 408.903 968.249 409.287 968.438C409.678 968.626 410.12 968.721 410.615 968.721C411.253 968.721 411.794 968.59 412.236 968.33C412.679 968.07 413.066 967.721 413.398 967.285L414.492 968.154C414.264 968.499 413.975 968.828 413.623 969.141C413.271 969.453 412.839 969.707 412.324 969.902C411.816 970.098 411.214 970.195 410.518 970.195ZM418.545 961.094V970H416.738V959.434H418.496L418.545 961.094ZM421.846 959.375L421.836 961.055C421.686 961.022 421.543 961.003 421.406 960.996C421.276 960.983 421.126 960.977 420.957 960.977C420.54 960.977 420.173 961.042 419.854 961.172C419.535 961.302 419.264 961.484 419.043 961.719C418.822 961.953 418.646 962.233 418.516 962.559C418.392 962.878 418.311 963.229 418.271 963.613L417.764 963.906C417.764 963.268 417.826 962.669 417.949 962.109C418.079 961.549 418.278 961.055 418.545 960.625C418.812 960.189 419.15 959.85 419.561 959.609C419.977 959.362 420.472 959.238 421.045 959.238C421.175 959.238 421.325 959.255 421.494 959.287C421.663 959.313 421.781 959.342 421.846 959.375Z" fill="#F8F4E3"/>
<g filter="url(#filter4_d_31_208)">
<path d="M700.354 954.354C700.549 954.158 700.549 953.842 700.354 953.646L697.172 950.464C696.976 950.269 696.66 950.269 696.464 950.464C696.269 950.66 696.269 950.976 696.464 951.172L699.293 954L696.464 956.828C696.269 957.024 696.269 957.34 696.464 957.536C696.66 957.731 696.976 957.731 697.172 957.536L700.354 954.354ZM659 954.5H700V953.5H659V954.5Z" fill="white"/>
</g>
<g filter="url(#filter5_d_31_208)">
<rect x="499.5" y="923.5" width="159" height="59" rx="3.5" stroke="#F27654" shape-rendering="crispEdges"/>
</g>
<path d="M565.594 947.193V941.754C565.594 941.337 565.509 940.976 565.34 940.67C565.177 940.357 564.93 940.117 564.598 939.947C564.266 939.778 563.855 939.693 563.367 939.693C562.911 939.693 562.511 939.771 562.166 939.928C561.827 940.084 561.561 940.289 561.365 940.543C561.176 940.797 561.082 941.07 561.082 941.363H559.275C559.275 940.986 559.373 940.611 559.568 940.24C559.764 939.869 560.044 939.534 560.408 939.234C560.779 938.928 561.222 938.688 561.736 938.512C562.257 938.329 562.837 938.238 563.475 938.238C564.243 938.238 564.92 938.368 565.506 938.629C566.098 938.889 566.561 939.283 566.893 939.811C567.231 940.331 567.4 940.986 567.4 941.773V946.695C567.4 947.047 567.43 947.421 567.488 947.818C567.553 948.215 567.648 948.557 567.771 948.844V949H565.887C565.796 948.792 565.724 948.515 565.672 948.17C565.62 947.818 565.594 947.493 565.594 947.193ZM565.906 942.594L565.926 943.863H564.1C563.585 943.863 563.126 943.906 562.723 943.99C562.319 944.068 561.98 944.189 561.707 944.352C561.434 944.514 561.225 944.719 561.082 944.967C560.939 945.208 560.867 945.491 560.867 945.816C560.867 946.148 560.942 946.451 561.092 946.725C561.242 946.998 561.466 947.216 561.766 947.379C562.072 947.535 562.446 947.613 562.889 947.613C563.442 947.613 563.93 947.496 564.354 947.262C564.777 947.027 565.112 946.741 565.359 946.402C565.613 946.064 565.75 945.735 565.77 945.416L566.541 946.285C566.495 946.559 566.372 946.861 566.17 947.193C565.968 947.525 565.698 947.844 565.359 948.15C565.027 948.45 564.63 948.701 564.168 948.902C563.712 949.098 563.198 949.195 562.625 949.195C561.909 949.195 561.281 949.055 560.74 948.775C560.206 948.495 559.79 948.121 559.49 947.652C559.197 947.177 559.051 946.646 559.051 946.061C559.051 945.494 559.161 944.996 559.383 944.566C559.604 944.13 559.923 943.769 560.34 943.482C560.757 943.189 561.258 942.968 561.844 942.818C562.43 942.669 563.084 942.594 563.807 942.594H565.906ZM583.455 939.479V941.051H575.311V939.479H583.455ZM583.455 943.531V945.104H575.311V943.531H583.455ZM599.871 940.758V942.926C599.871 944.091 599.767 945.074 599.559 945.875C599.35 946.676 599.051 947.32 598.66 947.809C598.27 948.297 597.798 948.652 597.244 948.873C596.697 949.088 596.079 949.195 595.389 949.195C594.842 949.195 594.337 949.127 593.875 948.99C593.413 948.854 592.996 948.635 592.625 948.336C592.26 948.03 591.948 947.633 591.688 947.145C591.427 946.656 591.229 946.064 591.092 945.367C590.955 944.671 590.887 943.857 590.887 942.926V940.758C590.887 939.592 590.991 938.616 591.199 937.828C591.414 937.04 591.717 936.409 592.107 935.934C592.498 935.452 592.967 935.107 593.514 934.898C594.067 934.69 594.686 934.586 595.369 934.586C595.923 934.586 596.43 934.654 596.893 934.791C597.361 934.921 597.778 935.133 598.143 935.426C598.507 935.712 598.816 936.096 599.07 936.578C599.331 937.053 599.529 937.636 599.666 938.326C599.803 939.016 599.871 939.827 599.871 940.758ZM598.055 943.219V940.455C598.055 939.817 598.016 939.257 597.938 938.775C597.866 938.287 597.758 937.87 597.615 937.525C597.472 937.18 597.29 936.9 597.068 936.686C596.854 936.471 596.603 936.314 596.316 936.217C596.036 936.113 595.721 936.061 595.369 936.061C594.939 936.061 594.559 936.142 594.227 936.305C593.895 936.461 593.615 936.712 593.387 937.057C593.165 937.402 592.996 937.854 592.879 938.414C592.762 938.974 592.703 939.654 592.703 940.455V943.219C592.703 943.857 592.739 944.42 592.811 944.908C592.889 945.396 593.003 945.82 593.152 946.178C593.302 946.529 593.484 946.819 593.699 947.047C593.914 947.275 594.161 947.444 594.441 947.555C594.728 947.659 595.044 947.711 595.389 947.711C595.831 947.711 596.219 947.626 596.551 947.457C596.883 947.288 597.16 947.024 597.381 946.666C597.609 946.301 597.778 945.836 597.889 945.27C597.999 944.697 598.055 944.013 598.055 943.219ZM559.178 957H560.994V969.949L560.838 972H559.178V957ZM568.133 966.629V966.834C568.133 967.602 568.042 968.315 567.859 968.973C567.677 969.624 567.41 970.19 567.059 970.672C566.707 971.154 566.277 971.528 565.77 971.795C565.262 972.062 564.679 972.195 564.021 972.195C563.351 972.195 562.762 972.081 562.254 971.854C561.753 971.619 561.329 971.284 560.984 970.848C560.639 970.411 560.363 969.884 560.154 969.266C559.952 968.647 559.812 967.951 559.734 967.176V966.277C559.812 965.496 559.952 964.796 560.154 964.178C560.363 963.559 560.639 963.032 560.984 962.596C561.329 962.153 561.753 961.818 562.254 961.59C562.755 961.355 563.338 961.238 564.002 961.238C564.666 961.238 565.255 961.368 565.77 961.629C566.284 961.883 566.714 962.247 567.059 962.723C567.41 963.198 567.677 963.768 567.859 964.432C568.042 965.089 568.133 965.822 568.133 966.629ZM566.316 966.834V966.629C566.316 966.102 566.268 965.607 566.17 965.145C566.072 964.676 565.916 964.266 565.701 963.914C565.486 963.556 565.203 963.276 564.852 963.074C564.5 962.866 564.067 962.762 563.553 962.762C563.097 962.762 562.7 962.84 562.361 962.996C562.029 963.152 561.746 963.364 561.512 963.631C561.277 963.891 561.085 964.191 560.936 964.529C560.792 964.861 560.685 965.206 560.613 965.564V967.918C560.717 968.374 560.887 968.813 561.121 969.236C561.362 969.653 561.681 969.995 562.078 970.262C562.482 970.529 562.98 970.662 563.572 970.662C564.061 970.662 564.477 970.564 564.822 970.369C565.174 970.167 565.457 969.891 565.672 969.539C565.893 969.188 566.056 968.781 566.16 968.318C566.264 967.856 566.316 967.361 566.316 966.834ZM583.631 962.479V964.051H575.486V962.479H583.631ZM583.631 966.531V968.104H575.486V966.531H583.631ZM597.059 957.703V972H595.252V959.959L591.609 961.287V959.656L596.775 957.703H597.059Z" fill="#F8F4E3"/>
<g filter="url(#filter6_d_31_208)">
<path d="M1063 893L1143 893" stroke="white"/>
</g>
<g filter="url(#filter7_d_31_208)">
<path d="M1063 1010L1143 1010" stroke="white"/>
</g>
<g filter="url(#filter8_d_31_208)">
<rect x="904.5" y="980.5" width="159" height="59" rx="3.5" stroke="#E7F591" shape-rendering="crispEdges"/>
</g>
<path d="M960.828 1011.42H957.029V1009.89H960.828C961.564 1009.89 962.16 1009.77 962.615 1009.54C963.071 1009.3 963.403 1008.98 963.611 1008.56C963.826 1008.15 963.934 1007.67 963.934 1007.14C963.934 1006.65 963.826 1006.19 963.611 1005.76C963.403 1005.33 963.071 1004.99 962.615 1004.72C962.16 1004.46 961.564 1004.32 960.828 1004.32H957.469V1017H955.584V1002.78H960.828C961.902 1002.78 962.811 1002.97 963.553 1003.34C964.295 1003.71 964.858 1004.22 965.242 1004.88C965.626 1005.53 965.818 1006.28 965.818 1007.12C965.818 1008.03 965.626 1008.81 965.242 1009.45C964.858 1010.1 964.295 1010.59 963.553 1010.93C962.811 1011.26 961.902 1011.42 960.828 1011.42ZM969.734 1008.09V1017H967.928V1006.43H969.686L969.734 1008.09ZM973.035 1006.38L973.025 1008.05C972.876 1008.02 972.732 1008 972.596 1008C972.465 1007.98 972.316 1007.98 972.146 1007.98C971.73 1007.98 971.362 1008.04 971.043 1008.17C970.724 1008.3 970.454 1008.48 970.232 1008.72C970.011 1008.95 969.835 1009.23 969.705 1009.56C969.581 1009.88 969.5 1010.23 969.461 1010.61L968.953 1010.91C968.953 1010.27 969.015 1009.67 969.139 1009.11C969.269 1008.55 969.467 1008.05 969.734 1007.62C970.001 1007.19 970.34 1006.85 970.75 1006.61C971.167 1006.36 971.661 1006.24 972.234 1006.24C972.365 1006.24 972.514 1006.25 972.684 1006.29C972.853 1006.31 972.97 1006.34 973.035 1006.38ZM976.668 1006.43V1017H974.852V1006.43H976.668ZM974.715 1003.63C974.715 1003.34 974.803 1003.09 974.979 1002.89C975.161 1002.69 975.428 1002.59 975.779 1002.59C976.124 1002.59 976.388 1002.69 976.57 1002.89C976.759 1003.09 976.854 1003.34 976.854 1003.63C976.854 1003.91 976.759 1004.15 976.57 1004.35C976.388 1004.55 976.124 1004.65 975.779 1004.65C975.428 1004.65 975.161 1004.55 974.979 1004.35C974.803 1004.15 974.715 1003.91 974.715 1003.63ZM981.375 1008.69V1017H979.568V1006.43H981.277L981.375 1008.69ZM980.945 1011.32L980.193 1011.29C980.2 1010.56 980.307 1009.9 980.516 1009.29C980.724 1008.67 981.017 1008.13 981.395 1007.67C981.772 1007.22 982.221 1006.87 982.742 1006.62C983.27 1006.37 983.852 1006.24 984.49 1006.24C985.011 1006.24 985.48 1006.31 985.896 1006.45C986.313 1006.59 986.668 1006.81 986.961 1007.12C987.26 1007.42 987.488 1007.82 987.645 1008.31C987.801 1008.79 987.879 1009.38 987.879 1010.08V1017H986.062V1010.06C986.062 1009.5 985.981 1009.06 985.818 1008.73C985.656 1008.39 985.418 1008.15 985.105 1008C984.793 1007.84 984.409 1007.76 983.953 1007.76C983.504 1007.76 983.094 1007.86 982.723 1008.04C982.358 1008.23 982.042 1008.49 981.775 1008.83C981.515 1009.16 981.31 1009.54 981.16 1009.97C981.017 1010.39 980.945 1010.84 980.945 1011.32ZM995.047 1006.43V1007.82H989.334V1006.43H995.047ZM991.268 1003.87H993.074V1014.38C993.074 1014.74 993.13 1015.01 993.24 1015.19C993.351 1015.38 993.494 1015.5 993.67 1015.55C993.846 1015.61 994.035 1015.64 994.236 1015.64C994.386 1015.64 994.542 1015.63 994.705 1015.6C994.874 1015.57 995.001 1015.54 995.086 1015.53L995.096 1017C994.952 1017.05 994.764 1017.09 994.529 1017.13C994.301 1017.17 994.025 1017.2 993.699 1017.2C993.257 1017.2 992.85 1017.11 992.479 1016.93C992.107 1016.76 991.811 1016.46 991.59 1016.05C991.375 1015.64 991.268 1015.08 991.268 1014.37V1003.87ZM997.088 1016.04C997.088 1015.74 997.182 1015.48 997.371 1015.27C997.566 1015.06 997.846 1014.95 998.211 1014.95C998.576 1014.95 998.852 1015.06 999.041 1015.27C999.236 1015.48 999.334 1015.74 999.334 1016.04C999.334 1016.34 999.236 1016.6 999.041 1016.8C998.852 1017.01 998.576 1017.12 998.211 1017.12C997.846 1017.12 997.566 1017.01 997.371 1016.8C997.182 1016.6 997.088 1016.34 997.088 1016.04ZM997.098 1007.42C997.098 1007.11 997.192 1006.86 997.381 1006.65C997.576 1006.43 997.856 1006.33 998.221 1006.33C998.585 1006.33 998.862 1006.43 999.051 1006.65C999.246 1006.86 999.344 1007.11 999.344 1007.42C999.344 1007.72 999.246 1007.97 999.051 1008.18C998.862 1008.39 998.585 1008.49 998.221 1008.49C997.856 1008.49 997.576 1008.39 997.381 1008.18C997.192 1007.97 997.098 1007.72 997.098 1007.42ZM1009.94 1015.91L1012.88 1006.43H1014.81L1010.57 1018.63C1010.48 1018.89 1010.35 1019.17 1010.18 1019.47C1010.03 1019.78 1009.83 1020.07 1009.58 1020.34C1009.33 1020.61 1009.03 1020.83 1008.68 1021C1008.33 1021.18 1007.92 1021.27 1007.44 1021.27C1007.3 1021.27 1007.11 1021.25 1006.89 1021.21C1006.67 1021.17 1006.51 1021.14 1006.42 1021.11L1006.41 1019.65C1006.47 1019.65 1006.55 1019.66 1006.66 1019.67C1006.78 1019.68 1006.86 1019.69 1006.9 1019.69C1007.31 1019.69 1007.66 1019.63 1007.95 1019.52C1008.23 1019.42 1008.47 1019.24 1008.67 1018.98C1008.87 1018.74 1009.04 1018.39 1009.19 1017.96L1009.94 1015.91ZM1007.78 1006.43L1010.53 1014.64L1010.99 1016.54L1009.7 1017.21L1005.81 1006.43H1007.78Z" fill="#F8F4E3"/>
<g filter="url(#filter9_d_31_208)">
<rect x="904.5" y="863.5" width="159" height="59" rx="3.5" stroke="#E7F591" shape-rendering="crispEdges"/>
</g>
<path d="M960.604 894.424H956.805V892.891H960.604C961.339 892.891 961.935 892.773 962.391 892.539C962.846 892.305 963.178 891.979 963.387 891.562C963.602 891.146 963.709 890.671 963.709 890.137C963.709 889.648 963.602 889.189 963.387 888.76C963.178 888.33 962.846 887.985 962.391 887.725C961.935 887.458 961.339 887.324 960.604 887.324H957.244V900H955.359V885.781H960.604C961.678 885.781 962.586 885.967 963.328 886.338C964.07 886.709 964.633 887.223 965.018 887.881C965.402 888.532 965.594 889.277 965.594 890.117C965.594 891.029 965.402 891.807 965.018 892.451C964.633 893.096 964.07 893.587 963.328 893.926C962.586 894.258 961.678 894.424 960.604 894.424ZM969.51 891.094V900H967.703V889.434H969.461L969.51 891.094ZM972.811 889.375L972.801 891.055C972.651 891.022 972.508 891.003 972.371 890.996C972.241 890.983 972.091 890.977 971.922 890.977C971.505 890.977 971.137 891.042 970.818 891.172C970.499 891.302 970.229 891.484 970.008 891.719C969.786 891.953 969.611 892.233 969.48 892.559C969.357 892.878 969.275 893.229 969.236 893.613L968.729 893.906C968.729 893.268 968.79 892.669 968.914 892.109C969.044 891.549 969.243 891.055 969.51 890.625C969.777 890.189 970.115 889.85 970.525 889.609C970.942 889.362 971.437 889.238 972.01 889.238C972.14 889.238 972.29 889.255 972.459 889.287C972.628 889.313 972.745 889.342 972.811 889.375ZM976.443 889.434V900H974.627V889.434H976.443ZM974.49 886.631C974.49 886.338 974.578 886.09 974.754 885.889C974.936 885.687 975.203 885.586 975.555 885.586C975.9 885.586 976.163 885.687 976.346 885.889C976.535 886.09 976.629 886.338 976.629 886.631C976.629 886.911 976.535 887.152 976.346 887.354C976.163 887.549 975.9 887.646 975.555 887.646C975.203 887.646 974.936 887.549 974.754 887.354C974.578 887.152 974.49 886.911 974.49 886.631ZM981.15 891.689V900H979.344V889.434H981.053L981.15 891.689ZM980.721 894.316L979.969 894.287C979.975 893.564 980.083 892.897 980.291 892.285C980.499 891.667 980.792 891.13 981.17 890.674C981.548 890.218 981.997 889.867 982.518 889.619C983.045 889.365 983.628 889.238 984.266 889.238C984.786 889.238 985.255 889.31 985.672 889.453C986.089 889.59 986.443 889.811 986.736 890.117C987.036 890.423 987.264 890.82 987.42 891.309C987.576 891.79 987.654 892.38 987.654 893.076V900H985.838V893.057C985.838 892.503 985.757 892.061 985.594 891.729C985.431 891.39 985.193 891.146 984.881 890.996C984.568 890.84 984.184 890.762 983.729 890.762C983.279 890.762 982.869 890.856 982.498 891.045C982.133 891.234 981.818 891.494 981.551 891.826C981.29 892.158 981.085 892.539 980.936 892.969C980.792 893.392 980.721 893.841 980.721 894.316ZM994.822 889.434V890.82H989.109V889.434H994.822ZM991.043 886.865H992.85V897.383C992.85 897.741 992.905 898.011 993.016 898.193C993.126 898.376 993.27 898.496 993.445 898.555C993.621 898.613 993.81 898.643 994.012 898.643C994.161 898.643 994.318 898.63 994.48 898.604C994.65 898.571 994.777 898.545 994.861 898.525L994.871 900C994.728 900.046 994.539 900.088 994.305 900.127C994.077 900.173 993.8 900.195 993.475 900.195C993.032 900.195 992.625 900.107 992.254 899.932C991.883 899.756 991.587 899.463 991.365 899.053C991.15 898.636 991.043 898.076 991.043 897.373V886.865ZM996.863 899.043C996.863 898.737 996.958 898.48 997.146 898.271C997.342 898.057 997.622 897.949 997.986 897.949C998.351 897.949 998.628 898.057 998.816 898.271C999.012 898.48 999.109 898.737 999.109 899.043C999.109 899.342 999.012 899.596 998.816 899.805C998.628 900.013 998.351 900.117 997.986 900.117C997.622 900.117 997.342 900.013 997.146 899.805C996.958 899.596 996.863 899.342 996.863 899.043ZM996.873 890.42C996.873 890.114 996.967 889.857 997.156 889.648C997.352 889.434 997.632 889.326 997.996 889.326C998.361 889.326 998.637 889.434 998.826 889.648C999.021 889.857 999.119 890.114 999.119 890.42C999.119 890.719 999.021 890.973 998.826 891.182C998.637 891.39 998.361 891.494 997.996 891.494C997.632 891.494 997.352 891.39 997.156 891.182C996.967 890.973 996.873 890.719 996.873 890.42ZM1007.97 889.434L1010.28 893.281L1012.62 889.434H1014.74L1011.29 894.648L1014.85 900H1012.76L1010.32 896.035L1007.88 900H1005.78L1009.33 894.648L1005.89 889.434H1007.97Z" fill="#F8F4E3"/>
<g filter="url(#filter10_d_31_208)">
<line x1="761" y1="915" x2="761" y2="893" stroke="white"/>
</g>
<g filter="url(#filter11_d_31_208)">
<path d="M903.354 893.354C903.549 893.158 903.549 892.842 903.354 892.646L900.172 889.464C899.976 889.269 899.66 889.269 899.464 889.464C899.269 889.66 899.269 889.976 899.464 890.172L902.293 893L899.464 895.828C899.269 896.024 899.269 896.34 899.464 896.536C899.66 896.731 899.976 896.731 900.172 896.536L903.354 893.354ZM760.5 893.5H903V892.5H760.5V893.5Z" fill="white"/>
</g>
<path d="M821.18 878.625V890H819.695V878.625H821.18ZM824.836 878.625V879.859H816.047V878.625H824.836ZM827.156 882.875V890H825.711V881.547H827.117L827.156 882.875ZM829.797 881.5L829.789 882.844C829.669 882.818 829.555 882.802 829.445 882.797C829.341 882.786 829.221 882.781 829.086 882.781C828.753 882.781 828.458 882.833 828.203 882.938C827.948 883.042 827.732 883.188 827.555 883.375C827.378 883.562 827.237 883.786 827.133 884.047C827.034 884.302 826.969 884.583 826.938 884.891L826.531 885.125C826.531 884.615 826.581 884.135 826.68 883.688C826.784 883.24 826.943 882.844 827.156 882.5C827.37 882.151 827.641 881.88 827.969 881.688C828.302 881.49 828.698 881.391 829.156 881.391C829.26 881.391 829.38 881.404 829.516 881.43C829.651 881.451 829.745 881.474 829.797 881.5ZM836.305 888.047V881.547H837.758V890H836.375L836.305 888.047ZM836.578 886.266L837.18 886.25C837.18 886.812 837.12 887.333 837 887.812C836.885 888.286 836.698 888.698 836.438 889.047C836.177 889.396 835.836 889.669 835.414 889.867C834.992 890.06 834.479 890.156 833.875 890.156C833.464 890.156 833.086 890.096 832.742 889.977C832.404 889.857 832.112 889.672 831.867 889.422C831.622 889.172 831.432 888.846 831.297 888.445C831.167 888.044 831.102 887.562 831.102 887V881.547H832.547V887.016C832.547 887.396 832.589 887.711 832.672 887.961C832.76 888.206 832.878 888.401 833.023 888.547C833.174 888.688 833.341 888.786 833.523 888.844C833.711 888.901 833.904 888.93 834.102 888.93C834.716 888.93 835.203 888.812 835.562 888.578C835.922 888.339 836.18 888.018 836.336 887.617C836.497 887.211 836.578 886.76 836.578 886.266ZM843.469 890.156C842.88 890.156 842.346 890.057 841.867 889.859C841.393 889.656 840.984 889.372 840.641 889.008C840.302 888.643 840.042 888.211 839.859 887.711C839.677 887.211 839.586 886.664 839.586 886.07V885.742C839.586 885.055 839.688 884.443 839.891 883.906C840.094 883.365 840.37 882.906 840.719 882.531C841.068 882.156 841.464 881.872 841.906 881.68C842.349 881.487 842.807 881.391 843.281 881.391C843.885 881.391 844.406 881.495 844.844 881.703C845.286 881.911 845.648 882.203 845.93 882.578C846.211 882.948 846.419 883.385 846.555 883.891C846.69 884.391 846.758 884.938 846.758 885.531V886.18H840.445V885H845.312V884.891C845.292 884.516 845.214 884.151 845.078 883.797C844.948 883.443 844.74 883.151 844.453 882.922C844.167 882.693 843.776 882.578 843.281 882.578C842.953 882.578 842.651 882.648 842.375 882.789C842.099 882.924 841.862 883.128 841.664 883.398C841.466 883.669 841.312 884 841.203 884.391C841.094 884.781 841.039 885.232 841.039 885.742V886.07C841.039 886.471 841.094 886.849 841.203 887.203C841.318 887.552 841.482 887.859 841.695 888.125C841.914 888.391 842.177 888.599 842.484 888.75C842.797 888.901 843.151 888.977 843.547 888.977C844.057 888.977 844.49 888.872 844.844 888.664C845.198 888.456 845.508 888.177 845.773 887.828L846.648 888.523C846.466 888.799 846.234 889.062 845.953 889.312C845.672 889.562 845.326 889.766 844.914 889.922C844.508 890.078 844.026 890.156 843.469 890.156Z" fill="white"/>
<g filter="url(#filter12_d_31_208)">
<line x1="761" y1="993" x2="761" y2="1010" stroke="white"/>
</g>
<g filter="url(#filter13_d_31_208)">
<path d="M903.354 1009.15C903.549 1009.34 903.549 1009.66 903.354 1009.85L900.172 1013.04C899.976 1013.23 899.66 1013.23 899.464 1013.04C899.269 1012.84 899.269 1012.52 899.464 1012.33L902.293 1009.5L899.464 1006.67C899.269 1006.48 899.269 1006.16 899.464 1005.96C899.66 1005.77 899.976 1005.77 900.172 1005.96L903.354 1009.15ZM760.933 1009L903 1009L903 1010L760.933 1010L760.933 1009Z" fill="white"/>
</g>
<path d="M815.367 1012.62V1024H813.859V1012.62H815.367ZM820.133 1017.74V1018.98H815.039V1017.74H820.133ZM820.906 1012.62V1013.86H815.039V1012.62H820.906ZM827.203 1022.55V1018.2C827.203 1017.87 827.135 1017.58 827 1017.34C826.87 1017.09 826.672 1016.89 826.406 1016.76C826.141 1016.62 825.812 1016.55 825.422 1016.55C825.057 1016.55 824.737 1016.62 824.461 1016.74C824.19 1016.87 823.977 1017.03 823.82 1017.23C823.669 1017.44 823.594 1017.66 823.594 1017.89H822.148C822.148 1017.59 822.227 1017.29 822.383 1016.99C822.539 1016.7 822.763 1016.43 823.055 1016.19C823.352 1015.94 823.706 1015.75 824.117 1015.61C824.534 1015.46 824.997 1015.39 825.508 1015.39C826.122 1015.39 826.664 1015.49 827.133 1015.7C827.607 1015.91 827.977 1016.23 828.242 1016.65C828.513 1017.07 828.648 1017.59 828.648 1018.22V1022.16C828.648 1022.44 828.672 1022.74 828.719 1023.05C828.771 1023.37 828.846 1023.65 828.945 1023.88V1024H827.438C827.365 1023.83 827.307 1023.61 827.266 1023.34C827.224 1023.05 827.203 1022.79 827.203 1022.55ZM827.453 1018.88L827.469 1019.89H826.008C825.596 1019.89 825.229 1019.92 824.906 1019.99C824.583 1020.05 824.312 1020.15 824.094 1020.28C823.875 1020.41 823.708 1020.58 823.594 1020.77C823.479 1020.97 823.422 1021.19 823.422 1021.45C823.422 1021.72 823.482 1021.96 823.602 1022.18C823.721 1022.4 823.901 1022.57 824.141 1022.7C824.385 1022.83 824.685 1022.89 825.039 1022.89C825.482 1022.89 825.872 1022.8 826.211 1022.61C826.549 1022.42 826.818 1022.19 827.016 1021.92C827.219 1021.65 827.328 1021.39 827.344 1021.13L827.961 1021.83C827.924 1022.05 827.826 1022.29 827.664 1022.55C827.503 1022.82 827.286 1023.08 827.016 1023.32C826.75 1023.56 826.432 1023.76 826.062 1023.92C825.698 1024.08 825.286 1024.16 824.828 1024.16C824.255 1024.16 823.753 1024.04 823.32 1023.82C822.893 1023.6 822.56 1023.3 822.32 1022.92C822.086 1022.54 821.969 1022.12 821.969 1021.65C821.969 1021.2 822.057 1020.8 822.234 1020.45C822.411 1020.1 822.667 1019.82 823 1019.59C823.333 1019.35 823.734 1019.17 824.203 1019.05C824.672 1018.93 825.195 1018.88 825.773 1018.88H827.453ZM832.492 1012V1024H831.039V1012H832.492ZM839.734 1021.76C839.734 1021.55 839.688 1021.36 839.594 1021.18C839.505 1021 839.32 1020.83 839.039 1020.69C838.763 1020.54 838.346 1020.41 837.789 1020.3C837.32 1020.2 836.896 1020.08 836.516 1019.95C836.141 1019.81 835.82 1019.65 835.555 1019.45C835.294 1019.26 835.094 1019.03 834.953 1018.77C834.812 1018.51 834.742 1018.21 834.742 1017.86C834.742 1017.53 834.815 1017.21 834.961 1016.91C835.112 1016.62 835.323 1016.35 835.594 1016.12C835.87 1015.9 836.201 1015.72 836.586 1015.59C836.971 1015.46 837.401 1015.39 837.875 1015.39C838.552 1015.39 839.13 1015.51 839.609 1015.75C840.089 1015.99 840.456 1016.31 840.711 1016.71C840.966 1017.11 841.094 1017.55 841.094 1018.03H839.648C839.648 1017.8 839.578 1017.57 839.438 1017.35C839.302 1017.13 839.102 1016.94 838.836 1016.8C838.576 1016.65 838.255 1016.58 837.875 1016.58C837.474 1016.58 837.148 1016.64 836.898 1016.77C836.654 1016.89 836.474 1017.04 836.359 1017.23C836.25 1017.41 836.195 1017.61 836.195 1017.82C836.195 1017.98 836.221 1018.12 836.273 1018.24C836.331 1018.36 836.43 1018.47 836.57 1018.58C836.711 1018.68 836.909 1018.77 837.164 1018.86C837.419 1018.95 837.745 1019.04 838.141 1019.12C838.833 1019.28 839.404 1019.47 839.852 1019.69C840.299 1019.91 840.633 1020.17 840.852 1020.49C841.07 1020.81 841.18 1021.2 841.18 1021.65C841.18 1022.02 841.102 1022.36 840.945 1022.66C840.794 1022.97 840.573 1023.24 840.281 1023.46C839.995 1023.68 839.651 1023.85 839.25 1023.98C838.854 1024.1 838.409 1024.16 837.914 1024.16C837.169 1024.16 836.539 1024.02 836.023 1023.76C835.508 1023.49 835.117 1023.15 834.852 1022.73C834.586 1022.3 834.453 1021.86 834.453 1021.39H835.906C835.927 1021.79 836.042 1022.1 836.25 1022.34C836.458 1022.57 836.714 1022.73 837.016 1022.83C837.318 1022.92 837.617 1022.97 837.914 1022.97C838.31 1022.97 838.641 1022.92 838.906 1022.81C839.177 1022.71 839.383 1022.57 839.523 1022.38C839.664 1022.2 839.734 1021.99 839.734 1021.76ZM846.586 1024.16C845.997 1024.16 845.464 1024.06 844.984 1023.86C844.51 1023.66 844.102 1023.37 843.758 1023.01C843.419 1022.64 843.159 1022.21 842.977 1021.71C842.794 1021.21 842.703 1020.66 842.703 1020.07V1019.74C842.703 1019.05 842.805 1018.44 843.008 1017.91C843.211 1017.36 843.487 1016.91 843.836 1016.53C844.185 1016.16 844.581 1015.87 845.023 1015.68C845.466 1015.49 845.924 1015.39 846.398 1015.39C847.003 1015.39 847.523 1015.49 847.961 1015.7C848.404 1015.91 848.766 1016.2 849.047 1016.58C849.328 1016.95 849.536 1017.39 849.672 1017.89C849.807 1018.39 849.875 1018.94 849.875 1019.53V1020.18H843.562V1019H848.43V1018.89C848.409 1018.52 848.331 1018.15 848.195 1017.8C848.065 1017.44 847.857 1017.15 847.57 1016.92C847.284 1016.69 846.893 1016.58 846.398 1016.58C846.07 1016.58 845.768 1016.65 845.492 1016.79C845.216 1016.92 844.979 1017.13 844.781 1017.4C844.583 1017.67 844.43 1018 844.32 1018.39C844.211 1018.78 844.156 1019.23 844.156 1019.74V1020.07C844.156 1020.47 844.211 1020.85 844.32 1021.2C844.435 1021.55 844.599 1021.86 844.812 1022.12C845.031 1022.39 845.294 1022.6 845.602 1022.75C845.914 1022.9 846.268 1022.98 846.664 1022.98C847.174 1022.98 847.607 1022.87 847.961 1022.66C848.315 1022.46 848.625 1022.18 848.891 1021.83L849.766 1022.52C849.583 1022.8 849.352 1023.06 849.07 1023.31C848.789 1023.56 848.443 1023.77 848.031 1023.92C847.625 1024.08 847.143 1024.16 846.586 1024.16Z" fill="white"/>
<g filter="url(#filter14_d_31_208)">
<path d="M701.901 954L761 914.601L820.099 954L761 993.399L701.901 954Z" stroke="#1794EF" shape-rendering="crispEdges"/>
</g>
<path d="M747.857 959.193V953.754C747.857 953.337 747.773 952.976 747.604 952.67C747.441 952.357 747.193 952.117 746.861 951.947C746.529 951.778 746.119 951.693 745.631 951.693C745.175 951.693 744.775 951.771 744.43 951.928C744.091 952.084 743.824 952.289 743.629 952.543C743.44 952.797 743.346 953.07 743.346 953.363H741.539C741.539 952.986 741.637 952.611 741.832 952.24C742.027 951.869 742.307 951.534 742.672 951.234C743.043 950.928 743.486 950.688 744 950.512C744.521 950.329 745.1 950.238 745.738 950.238C746.507 950.238 747.184 950.368 747.77 950.629C748.362 950.889 748.824 951.283 749.156 951.811C749.495 952.331 749.664 952.986 749.664 953.773V958.695C749.664 959.047 749.693 959.421 749.752 959.818C749.817 960.215 749.911 960.557 750.035 960.844V961H748.15C748.059 960.792 747.988 960.515 747.936 960.17C747.883 959.818 747.857 959.493 747.857 959.193ZM748.17 954.594L748.189 955.863H746.363C745.849 955.863 745.39 955.906 744.986 955.99C744.583 956.068 744.244 956.189 743.971 956.352C743.697 956.514 743.489 956.719 743.346 956.967C743.202 957.208 743.131 957.491 743.131 957.816C743.131 958.148 743.206 958.451 743.355 958.725C743.505 958.998 743.73 959.216 744.029 959.379C744.335 959.535 744.71 959.613 745.152 959.613C745.706 959.613 746.194 959.496 746.617 959.262C747.04 959.027 747.376 958.741 747.623 958.402C747.877 958.064 748.014 957.735 748.033 957.416L748.805 958.285C748.759 958.559 748.635 958.861 748.434 959.193C748.232 959.525 747.962 959.844 747.623 960.15C747.291 960.45 746.894 960.701 746.432 960.902C745.976 961.098 745.462 961.195 744.889 961.195C744.173 961.195 743.544 961.055 743.004 960.775C742.47 960.495 742.053 960.121 741.754 959.652C741.461 959.177 741.314 958.646 741.314 958.061C741.314 957.494 741.425 956.996 741.646 956.566C741.868 956.13 742.187 955.769 742.604 955.482C743.02 955.189 743.521 954.968 744.107 954.818C744.693 954.669 745.348 954.594 746.07 954.594H748.17ZM764.352 954.828L757.408 952.123V950.258L765.748 953.949V955.092L764.352 954.828ZM757.408 957.211L764.371 954.447L765.748 954.242V955.375L757.408 959.076V957.211ZM772.887 946H774.703V958.949L774.547 961H772.887V946ZM781.842 955.629V955.834C781.842 956.602 781.751 957.315 781.568 957.973C781.386 958.624 781.119 959.19 780.768 959.672C780.416 960.154 779.986 960.528 779.479 960.795C778.971 961.062 778.388 961.195 777.73 961.195C777.06 961.195 776.471 961.081 775.963 960.854C775.462 960.619 775.038 960.284 774.693 959.848C774.348 959.411 774.072 958.884 773.863 958.266C773.661 957.647 773.521 956.951 773.443 956.176V955.277C773.521 954.496 773.661 953.796 773.863 953.178C774.072 952.559 774.348 952.032 774.693 951.596C775.038 951.153 775.462 950.818 775.963 950.59C776.464 950.355 777.047 950.238 777.711 950.238C778.375 950.238 778.964 950.368 779.479 950.629C779.993 950.883 780.423 951.247 780.768 951.723C781.119 952.198 781.386 952.768 781.568 953.432C781.751 954.089 781.842 954.822 781.842 955.629ZM780.025 955.834V955.629C780.025 955.102 779.977 954.607 779.879 954.145C779.781 953.676 779.625 953.266 779.41 952.914C779.195 952.556 778.912 952.276 778.561 952.074C778.209 951.866 777.776 951.762 777.262 951.762C776.806 951.762 776.409 951.84 776.07 951.996C775.738 952.152 775.455 952.364 775.221 952.631C774.986 952.891 774.794 953.191 774.645 953.529C774.501 953.861 774.394 954.206 774.322 954.564V956.918C774.426 957.374 774.596 957.813 774.83 958.236C775.071 958.653 775.39 958.995 775.787 959.262C776.191 959.529 776.689 959.662 777.281 959.662C777.77 959.662 778.186 959.564 778.531 959.369C778.883 959.167 779.166 958.891 779.381 958.539C779.602 958.188 779.765 957.781 779.869 957.318C779.973 956.856 780.025 956.361 780.025 955.834Z" fill="#F8F4E3"/>
<g filter="url(#filter15_d_31_208)">
<path d="M1142.5 1012.67C1143.97 1012.67 1145.17 1011.47 1145.17 1010C1145.17 1008.53 1143.97 1007.33 1142.5 1007.33C1141.03 1007.33 1139.83 1008.53 1139.83 1010C1139.83 1011.47 1141.03 1012.67 1142.5 1012.67ZM1142.5 895.667C1143.97 895.667 1145.17 894.473 1145.17 893C1145.17 891.527 1143.97 890.333 1142.5 890.333C1141.03 890.333 1139.83 891.527 1139.83 893C1139.83 894.473 1141.03 895.667 1142.5 895.667ZM1143 1010L1143 893L1142 893L1142 1010L1143 1010Z" fill="white"/>
</g>
<g filter="url(#filter16_d_31_208)">
<path d="M1185.35 952.354C1185.55 952.158 1185.55 951.842 1185.35 951.646L1182.17 948.464C1181.98 948.269 1181.66 948.269 1181.46 948.464C1181.27 948.66 1181.27 948.976 1181.46 949.172L1184.29 952L1181.46 954.828C1181.27 955.024 1181.27 955.34 1181.46 955.536C1181.66 955.731 1181.98 955.731 1182.17 955.536L1185.35 952.354ZM1143 952.5H1185V951.5H1143V952.5Z" fill="white"/>
</g>
<g filter="url(#filter17_d_31_208)">
<rect x="1186.5" y="923.5" width="159" height="59" rx="29.5" stroke="#F14444" shape-rendering="crispEdges"/>
</g>
<path d="M1260.33 958.467V960H1252.8V958.467H1260.33ZM1253.18 945.781V960H1251.29V945.781H1253.18ZM1259.33 951.895V953.428H1252.8V951.895H1259.33ZM1260.23 945.781V947.324H1252.8V945.781H1260.23ZM1264.2 951.689V960H1262.39V949.434H1264.1L1264.2 951.689ZM1263.77 954.316L1263.01 954.287C1263.02 953.564 1263.13 952.897 1263.34 952.285C1263.54 951.667 1263.84 951.13 1264.21 950.674C1264.59 950.218 1265.04 949.867 1265.56 949.619C1266.09 949.365 1266.67 949.238 1267.31 949.238C1267.83 949.238 1268.3 949.31 1268.72 949.453C1269.13 949.59 1269.49 949.811 1269.78 950.117C1270.08 950.423 1270.31 950.82 1270.46 951.309C1270.62 951.79 1270.7 952.38 1270.7 953.076V960H1268.88V953.057C1268.88 952.503 1268.8 952.061 1268.64 951.729C1268.48 951.39 1268.24 951.146 1267.93 950.996C1267.61 950.84 1267.23 950.762 1266.77 950.762C1266.32 950.762 1265.91 950.856 1265.54 951.045C1265.18 951.234 1264.86 951.494 1264.6 951.826C1264.34 952.158 1264.13 952.539 1263.98 952.969C1263.84 953.392 1263.77 953.841 1263.77 954.316ZM1280.1 957.949V945H1281.92V960H1280.26L1280.1 957.949ZM1272.99 954.834V954.629C1272.99 953.822 1273.09 953.089 1273.29 952.432C1273.49 951.768 1273.77 951.198 1274.14 950.723C1274.51 950.247 1274.95 949.883 1275.46 949.629C1275.97 949.368 1276.54 949.238 1277.17 949.238C1277.84 949.238 1278.42 949.355 1278.91 949.59C1279.41 949.818 1279.84 950.153 1280.18 950.596C1280.53 951.032 1280.81 951.559 1281.01 952.178C1281.21 952.796 1281.35 953.496 1281.43 954.277V955.176C1281.36 955.951 1281.22 956.647 1281.01 957.266C1280.81 957.884 1280.53 958.411 1280.18 958.848C1279.84 959.284 1279.41 959.619 1278.91 959.854C1278.41 960.081 1277.82 960.195 1277.15 960.195C1276.54 960.195 1275.97 960.062 1275.46 959.795C1274.95 959.528 1274.51 959.154 1274.14 958.672C1273.77 958.19 1273.49 957.624 1273.29 956.973C1273.09 956.315 1272.99 955.602 1272.99 954.834ZM1274.81 954.629V954.834C1274.81 955.361 1274.86 955.856 1274.97 956.318C1275.08 956.781 1275.25 957.188 1275.47 957.539C1275.7 957.891 1275.99 958.167 1276.34 958.369C1276.7 958.564 1277.12 958.662 1277.6 958.662C1278.2 958.662 1278.69 958.535 1279.08 958.281C1279.47 958.027 1279.78 957.692 1280.02 957.275C1280.25 956.859 1280.43 956.406 1280.56 955.918V953.564C1280.48 953.206 1280.37 952.861 1280.22 952.529C1280.08 952.191 1279.89 951.891 1279.65 951.631C1279.43 951.364 1279.14 951.152 1278.8 950.996C1278.47 950.84 1278.08 950.762 1277.62 950.762C1277.13 950.762 1276.7 950.866 1276.34 951.074C1275.99 951.276 1275.7 951.556 1275.47 951.914C1275.25 952.266 1275.08 952.676 1274.97 953.145C1274.86 953.607 1274.81 954.102 1274.81 954.629Z" fill="#F8F4E3"/>
<rect x="-21" y="785" width="1475" height="282" fill="#646464" fill-opacity="0.5"/>
<g filter="url(#filter18_dd_31_208)">
<path d="M1473 -9V847.943L560.804 892.195L-27 963V898.443V-9H1473Z" fill="#303031"/>
<path d="M1473 -9V847.943L560.804 892.195L-27 963V898.443V-9H1473Z" fill="url(#paint0_linear_31_208)" fill-opacity="0.3"/>
</g>
</g>
<defs>
<filter id="filter0_d_31_208" x="254" y="949.818" width="43.5" height="9.36426" filterUnits="userSpaceOnUse" color-interpolation-filters="sRGB">
<feFlood flood-opacity="0" result="BackgroundImageFix"/>
<feColorMatrix in="SourceAlpha" type="matrix" values="0 0 0 0 0 0 0 0 0 0 0 0 0 0 0 0 0 0 127 0" result="hardAlpha"/>
<feOffset dy="0.5"/>
<feGaussianBlur stdDeviation="0.5"/>
<feComposite in2="hardAlpha" operator="out"/>
<feColorMatrix type="matrix" values="0 0 0 0 0.972549 0 0 0 0 0.956863 0 0 0 0 0.890196 0 0 0 1 0"/>
<feBlend mode="normal" in2="BackgroundImageFix" result="effect1_dropShadow_31_208"/>
<feBlend mode="normal" in="SourceGraphic" in2="effect1_dropShadow_31_208" result="shape"/>
</filter>
<filter id="filter1_d_31_208" x="92" y="922" width="166" height="66" filterUnits="userSpaceOnUse" color-interpolation-filters="sRGB">
<feFlood flood-opacity="0" result="BackgroundImageFix"/>
<feColorMatrix in="SourceAlpha" type="matrix" values="0 0 0 0 0 0 0 0 0 0 0 0 0 0 0 0 0 0 127 0" result="hardAlpha"/>
<feOffset dy="2"/>
<feGaussianBlur stdDeviation="1.5"/>
<feComposite in2="hardAlpha" operator="out"/>
<feColorMatrix type="matrix" values="0 0 0 0 0.972549 0 0 0 0 0.956863 0 0 0 0 0.890196 0 0 0 1 0"/>
<feBlend mode="normal" in2="BackgroundImageFix" result="effect1_dropShadow_31_208"/>
<feBlend mode="normal" in="SourceGraphic" in2="effect1_dropShadow_31_208" result="shape"/>
</filter>
<filter id="filter2_d_31_208" x="456" y="949.818" width="43.5" height="9.36426" filterUnits="userSpaceOnUse" color-interpolation-filters="sRGB">
<feFlood flood-opacity="0" result="BackgroundImageFix"/>
<feColorMatrix in="SourceAlpha" type="matrix" values="0 0 0 0 0 0 0 0 0 0 0 0 0 0 0 0 0 0 127 0" result="hardAlpha"/>
<feOffset dy="0.5"/>
<feGaussianBlur stdDeviation="0.5"/>
<feComposite in2="hardAlpha" operator="out"/>
<feColorMatrix type="matrix" values="0 0 0 0 0.972549 0 0 0 0 0.956863 0 0 0 0 0.890196 0 0 0 1 0"/>
<feBlend mode="normal" in2="BackgroundImageFix" result="effect1_dropShadow_31_208"/>
<feBlend mode="normal" in="SourceGraphic" in2="effect1_dropShadow_31_208" result="shape"/>
</filter>
<filter id="filter3_d_31_208" x="294" y="922" width="166" height="66" filterUnits="userSpaceOnUse" color-interpolation-filters="sRGB">
<feFlood flood-opacity="0" result="BackgroundImageFix"/>
<feColorMatrix in="SourceAlpha" type="matrix" values="0 0 0 0 0 0 0 0 0 0 0 0 0 0 0 0 0 0 127 0" result="hardAlpha"/>
<feOffset dy="2"/>
<feGaussianBlur stdDeviation="1.5"/>
<feComposite in2="hardAlpha" operator="out"/>
<feColorMatrix type="matrix" values="0 0 0 0 0.972549 0 0 0 0 0.956863 0 0 0 0 0.890196 0 0 0 1 0"/>
<feBlend mode="normal" in2="BackgroundImageFix" result="effect1_dropShadow_31_208"/>
<feBlend mode="normal" in="SourceGraphic" in2="effect1_dropShadow_31_208" result="shape"/>
</filter>
<filter id="filter4_d_31_208" x="658" y="949.818" width="43.5" height="9.36426" filterUnits="userSpaceOnUse" color-interpolation-filters="sRGB">
<feFlood flood-opacity="0" result="BackgroundImageFix"/>
<feColorMatrix in="SourceAlpha" type="matrix" values="0 0 0 0 0 0 0 0 0 0 0 0 0 0 0 0 0 0 127 0" result="hardAlpha"/>
<feOffset dy="0.5"/>
<feGaussianBlur stdDeviation="0.5"/>
<feComposite in2="hardAlpha" operator="out"/>
<feColorMatrix type="matrix" values="0 0 0 0 0.972549 0 0 0 0 0.956863 0 0 0 0 0.890196 0 0 0 1 0"/>
<feBlend mode="normal" in2="BackgroundImageFix" result="effect1_dropShadow_31_208"/>
<feBlend mode="normal" in="SourceGraphic" in2="effect1_dropShadow_31_208" result="shape"/>
</filter>
<filter id="filter5_d_31_208" x="496" y="922" width="166" height="66" filterUnits="userSpaceOnUse" color-interpolation-filters="sRGB">
<feFlood flood-opacity="0" result="BackgroundImageFix"/>
<feColorMatrix in="SourceAlpha" type="matrix" values="0 0 0 0 0 0 0 0 0 0 0 0 0 0 0 0 0 0 127 0" result="hardAlpha"/>
<feOffset dy="2"/>
<feGaussianBlur stdDeviation="1.5"/>
<feComposite in2="hardAlpha" operator="out"/>
<feColorMatrix type="matrix" values="0 0 0 0 0.972549 0 0 0 0 0.956863 0 0 0 0 0.890196 0 0 0 1 0"/>
<feBlend mode="normal" in2="BackgroundImageFix" result="effect1_dropShadow_31_208"/>
<feBlend mode="normal" in="SourceGraphic" in2="effect1_dropShadow_31_208" result="shape"/>
</filter>
<filter id="filter6_d_31_208" x="1062" y="892" width="82" height="3" filterUnits="userSpaceOnUse" color-interpolation-filters="sRGB">
<feFlood flood-opacity="0" result="BackgroundImageFix"/>
<feColorMatrix in="SourceAlpha" type="matrix" values="0 0 0 0 0 0 0 0 0 0 0 0 0 0 0 0 0 0 127 0" result="hardAlpha"/>
<feOffset dy="0.5"/>
<feGaussianBlur stdDeviation="0.5"/>
<feComposite in2="hardAlpha" operator="out"/>
<feColorMatrix type="matrix" values="0 0 0 0 0.972549 0 0 0 0 0.956863 0 0 0 0 0.890196 0 0 0 1 0"/>
<feBlend mode="normal" in2="BackgroundImageFix" result="effect1_dropShadow_31_208"/>
<feBlend mode="normal" in="SourceGraphic" in2="effect1_dropShadow_31_208" result="shape"/>
</filter>
<filter id="filter7_d_31_208" x="1062" y="1009" width="82" height="3" filterUnits="userSpaceOnUse" color-interpolation-filters="sRGB">
<feFlood flood-opacity="0" result="BackgroundImageFix"/>
<feColorMatrix in="SourceAlpha" type="matrix" values="0 0 0 0 0 0 0 0 0 0 0 0 0 0 0 0 0 0 127 0" result="hardAlpha"/>
<feOffset dy="0.5"/>
<feGaussianBlur stdDeviation="0.5"/>
<feComposite in2="hardAlpha" operator="out"/>
<feColorMatrix type="matrix" values="0 0 0 0 0.972549 0 0 0 0 0.956863 0 0 0 0 0.890196 0 0 0 1 0"/>
<feBlend mode="normal" in2="BackgroundImageFix" result="effect1_dropShadow_31_208"/>
<feBlend mode="normal" in="SourceGraphic" in2="effect1_dropShadow_31_208" result="shape"/>
</filter>
<filter id="filter8_d_31_208" x="901" y="979" width="166" height="66" filterUnits="userSpaceOnUse" color-interpolation-filters="sRGB">
<feFlood flood-opacity="0" result="BackgroundImageFix"/>
<feColorMatrix in="SourceAlpha" type="matrix" values="0 0 0 0 0 0 0 0 0 0 0 0 0 0 0 0 0 0 127 0" result="hardAlpha"/>
<feOffset dy="2"/>
<feGaussianBlur stdDeviation="1.5"/>
<feComposite in2="hardAlpha" operator="out"/>
<feColorMatrix type="matrix" values="0 0 0 0 0.972549 0 0 0 0 0.956863 0 0 0 0 0.890196 0 0 0 1 0"/>
<feBlend mode="normal" in2="BackgroundImageFix" result="effect1_dropShadow_31_208"/>
<feBlend mode="normal" in="SourceGraphic" in2="effect1_dropShadow_31_208" result="shape"/>
</filter>
<filter id="filter9_d_31_208" x="901" y="862" width="166" height="66" filterUnits="userSpaceOnUse" color-interpolation-filters="sRGB">
<feFlood flood-opacity="0" result="BackgroundImageFix"/>
<feColorMatrix in="SourceAlpha" type="matrix" values="0 0 0 0 0 0 0 0 0 0 0 0 0 0 0 0 0 0 127 0" result="hardAlpha"/>
<feOffset dy="2"/>
<feGaussianBlur stdDeviation="1.5"/>
<feComposite in2="hardAlpha" operator="out"/>
<feColorMatrix type="matrix" values="0 0 0 0 0.972549 0 0 0 0 0.956863 0 0 0 0 0.890196 0 0 0 1 0"/>
<feBlend mode="normal" in2="BackgroundImageFix" result="effect1_dropShadow_31_208"/>
<feBlend mode="normal" in="SourceGraphic" in2="effect1_dropShadow_31_208" result="shape"/>
</filter>
<filter id="filter10_d_31_208" x="759.5" y="892.5" width="3" height="24" filterUnits="userSpaceOnUse" color-interpolation-filters="sRGB">
<feFlood flood-opacity="0" result="BackgroundImageFix"/>
<feColorMatrix in="SourceAlpha" type="matrix" values="0 0 0 0 0 0 0 0 0 0 0 0 0 0 0 0 0 0 127 0" result="hardAlpha"/>
<feOffset dy="0.5"/>
<feGaussianBlur stdDeviation="0.5"/>
<feComposite in2="hardAlpha" operator="out"/>
<feColorMatrix type="matrix" values="0 0 0 0 0.972549 0 0 0 0 0.956863 0 0 0 0 0.890196 0 0 0 1 0"/>
<feBlend mode="normal" in2="BackgroundImageFix" result="effect1_dropShadow_31_208"/>
<feBlend mode="normal" in="SourceGraphic" in2="effect1_dropShadow_31_208" result="shape"/>
</filter>
<filter id="filter11_d_31_208" x="759.5" y="888.818" width="145" height="9.36426" filterUnits="userSpaceOnUse" color-interpolation-filters="sRGB">
<feFlood flood-opacity="0" result="BackgroundImageFix"/>
<feColorMatrix in="SourceAlpha" type="matrix" values="0 0 0 0 0 0 0 0 0 0 0 0 0 0 0 0 0 0 127 0" result="hardAlpha"/>
<feOffset dy="0.5"/>
<feGaussianBlur stdDeviation="0.5"/>
<feComposite in2="hardAlpha" operator="out"/>
<feColorMatrix type="matrix" values="0 0 0 0 0.972549 0 0 0 0 0.956863 0 0 0 0 0.890196 0 0 0 1 0"/>
<feBlend mode="normal" in2="BackgroundImageFix" result="effect1_dropShadow_31_208"/>
<feBlend mode="normal" in="SourceGraphic" in2="effect1_dropShadow_31_208" result="shape"/>
</filter>
<filter id="filter12_d_31_208" x="759.5" y="992.5" width="3" height="19" filterUnits="userSpaceOnUse" color-interpolation-filters="sRGB">
<feFlood flood-opacity="0" result="BackgroundImageFix"/>
<feColorMatrix in="SourceAlpha" type="matrix" values="0 0 0 0 0 0 0 0 0 0 0 0 0 0 0 0 0 0 127 0" result="hardAlpha"/>
<feOffset dy="0.5"/>
<feGaussianBlur stdDeviation="0.5"/>
<feComposite in2="hardAlpha" operator="out"/>
<feColorMatrix type="matrix" values="0 0 0 0 0.972549 0 0 0 0 0.956863 0 0 0 0 0.890196 0 0 0 1 0"/>
<feBlend mode="normal" in2="BackgroundImageFix" result="effect1_dropShadow_31_208"/>
<feBlend mode="normal" in="SourceGraphic" in2="effect1_dropShadow_31_208" result="shape"/>
</filter>
<filter id="filter13_d_31_208" x="759.933" y="1005.32" width="144.567" height="9.36426" filterUnits="userSpaceOnUse" color-interpolation-filters="sRGB">
<feFlood flood-opacity="0" result="BackgroundImageFix"/>
<feColorMatrix in="SourceAlpha" type="matrix" values="0 0 0 0 0 0 0 0 0 0 0 0 0 0 0 0 0 0 127 0" result="hardAlpha"/>
<feOffset dy="0.5"/>
<feGaussianBlur stdDeviation="0.5"/>
<feComposite in2="hardAlpha" operator="out"/>
<feColorMatrix type="matrix" values="0 0 0 0 0.972549 0 0 0 0 0.956863 0 0 0 0 0.890196 0 0 0 1 0"/>
<feBlend mode="normal" in2="BackgroundImageFix" result="effect1_dropShadow_31_208"/>
<feBlend mode="normal" in="SourceGraphic" in2="effect1_dropShadow_31_208" result="shape"/>
</filter>
<filter id="filter14_d_31_208" x="698" y="913" width="126" height="86" filterUnits="userSpaceOnUse" color-interpolation-filters="sRGB">
<feFlood flood-opacity="0" result="BackgroundImageFix"/>
<feColorMatrix in="SourceAlpha" type="matrix" values="0 0 0 0 0 0 0 0 0 0 0 0 0 0 0 0 0 0 127 0" result="hardAlpha"/>
<feOffset dy="2"/>
<feGaussianBlur stdDeviation="1.5"/>
<feComposite in2="hardAlpha" operator="out"/>
<feColorMatrix type="matrix" values="0 0 0 0 0.972549 0 0 0 0 0.956863 0 0 0 0 0.890196 0 0 0 1 0"/>
<feBlend mode="normal" in2="BackgroundImageFix" result="effect1_dropShadow_31_208"/>
<feBlend mode="normal" in="SourceGraphic" in2="effect1_dropShadow_31_208" result="shape"/>
</filter>
<filter id="filter15_d_31_208" x="1138.83" y="889.833" width="7.3335" height="124.333" filterUnits="userSpaceOnUse" color-interpolation-filters="sRGB">
<feFlood flood-opacity="0" result="BackgroundImageFix"/>
<feColorMatrix in="SourceAlpha" type="matrix" values="0 0 0 0 0 0 0 0 0 0 0 0 0 0 0 0 0 0 127 0" result="hardAlpha"/>
<feOffset dy="0.5"/>
<feGaussianBlur stdDeviation="0.5"/>
<feComposite in2="hardAlpha" operator="out"/>
<feColorMatrix type="matrix" values="0 0 0 0 0.972549 0 0 0 0 0.956863 0 0 0 0 0.890196 0 0 0 1 0"/>
<feBlend mode="normal" in2="BackgroundImageFix" result="effect1_dropShadow_31_208"/>
<feBlend mode="normal" in="SourceGraphic" in2="effect1_dropShadow_31_208" result="shape"/>
</filter>
<filter id="filter16_d_31_208" x="1142" y="947.818" width="44.5" height="9.36426" filterUnits="userSpaceOnUse" color-interpolation-filters="sRGB">
<feFlood flood-opacity="0" result="BackgroundImageFix"/>
<feColorMatrix in="SourceAlpha" type="matrix" values="0 0 0 0 0 0 0 0 0 0 0 0 0 0 0 0 0 0 127 0" result="hardAlpha"/>
<feOffset dy="0.5"/>
<feGaussianBlur stdDeviation="0.5"/>
<feComposite in2="hardAlpha" operator="out"/>
<feColorMatrix type="matrix" values="0 0 0 0 0.972549 0 0 0 0 0.956863 0 0 0 0 0.890196 0 0 0 1 0"/>
<feBlend mode="normal" in2="BackgroundImageFix" result="effect1_dropShadow_31_208"/>
<feBlend mode="normal" in="SourceGraphic" in2="effect1_dropShadow_31_208" result="shape"/>
</filter>
<filter id="filter17_d_31_208" x="1183" y="922" width="166" height="66" filterUnits="userSpaceOnUse" color-interpolation-filters="sRGB">
<feFlood flood-opacity="0" result="BackgroundImageFix"/>
<feColorMatrix in="SourceAlpha" type="matrix" values="0 0 0 0 0 0 0 0 0 0 0 0 0 0 0 0 0 0 127 0" result="hardAlpha"/>
<feOffset dy="2"/>
<feGaussianBlur stdDeviation="1.5"/>
<feComposite in2="hardAlpha" operator="out"/>
<feColorMatrix type="matrix" values="0 0 0 0 0.972549 0 0 0 0 0.956863 0 0 0 0 0.890196 0 0 0 1 0"/>
<feBlend mode="normal" in2="BackgroundImageFix" result="effect1_dropShadow_31_208"/>
<feBlend mode="normal" in="SourceGraphic" in2="effect1_dropShadow_31_208" result="shape"/>
</filter>
<filter id="filter18_dd_31_208" x="-77" y="-19" width="1600" height="1072" filterUnits="userSpaceOnUse" color-interpolation-filters="sRGB">
<feFlood flood-opacity="0" result="BackgroundImageFix"/>
<feColorMatrix in="SourceAlpha" type="matrix" values="0 0 0 0 0 0 0 0 0 0 0 0 0 0 0 0 0 0 127 0" result="hardAlpha"/>
<feOffset dy="4"/>
<feGaussianBlur stdDeviation="4"/>
<feComposite in2="hardAlpha" operator="out"/>
<feColorMatrix type="matrix" values="0 0 0 0 0 0 0 0 0 0 0 0 0 0 0 0 0 0 0.25 0"/>
<feBlend mode="normal" in2="BackgroundImageFix" result="effect1_dropShadow_31_208"/>
<feColorMatrix in="SourceAlpha" type="matrix" values="0 0 0 0 0 0 0 0 0 0 0 0 0 0 0 0 0 0 127 0" result="hardAlpha"/>
<feOffset dy="40"/>
<feGaussianBlur stdDeviation="25"/>
<feComposite in2="hardAlpha" operator="out"/>
<feColorMatrix type="matrix" values="0 0 0 0 0 0 0 0 0 0 0 0 0 0 0 0 0 0 0.25 0"/>
<feBlend mode="normal" in2="effect1_dropShadow_31_208" result="effect2_dropShadow_31_208"/>
<feBlend mode="normal" in="SourceGraphic" in2="effect2_dropShadow_31_208" result="shape"/>
</filter>
<linearGradient id="paint0_linear_31_208" x1="-89.4792" y1="484.549" x2="1541.98" y2="484.549" gradientUnits="userSpaceOnUse">
<stop/>
<stop offset="1" stop-opacity="0.6"/>
</linearGradient>
<clipPath id="clip0_31_208">
<rect width="1440" height="1024" fill="white"/>
</clipPath>
</defs>
</svg>
